G75*
G70*
%OFA0B0*%
%FSLAX24Y24*%
%IPPOS*%
%LPD*%
%AMOC8*
5,1,8,0,0,1.08239X$1,22.5*
%
%ADD10C,0.0040*%
%ADD11OC8,0.0860*%
%ADD12C,0.1000*%
%ADD13C,0.0650*%
%ADD14OC8,0.1000*%
%ADD15OC8,0.0594*%
%ADD16C,0.0397*%
%ADD17C,0.0160*%
%ADD18C,0.0240*%
%ADD19C,0.0396*%
%ADD20C,0.0100*%
%ADD21C,0.0560*%
%ADD22C,0.0500*%
%ADD23C,0.0700*%
%ADD24C,0.0120*%
D10*
X014443Y007743D02*
X014903Y007743D01*
X014673Y007743D02*
X014673Y008050D01*
X014903Y008050D02*
X014443Y008050D01*
X014443Y008203D02*
X014443Y008357D01*
X014443Y008280D02*
X014903Y008280D01*
X014903Y008203D02*
X014903Y008357D01*
X014826Y008510D02*
X014520Y008510D01*
X014443Y008587D01*
X014443Y008740D01*
X014520Y008817D01*
X014673Y008817D01*
X014673Y008664D01*
X014826Y008817D02*
X014903Y008740D01*
X014903Y008587D01*
X014826Y008510D01*
X014903Y008970D02*
X014443Y008970D01*
X014673Y008970D02*
X014673Y009277D01*
X014903Y009277D02*
X014443Y009277D01*
X014443Y009431D02*
X014596Y009584D01*
X014443Y009738D01*
X014903Y009738D01*
X014903Y009891D02*
X014903Y010045D01*
X014903Y009968D02*
X014443Y009968D01*
X014443Y009891D02*
X014443Y010045D01*
X014443Y010198D02*
X014903Y010198D01*
X014443Y010505D01*
X014903Y010505D01*
X014903Y010658D02*
X014903Y010889D01*
X014826Y010965D01*
X014520Y010965D01*
X014443Y010889D01*
X014443Y010658D01*
X014903Y010658D01*
X014903Y011579D02*
X014443Y011579D01*
X014443Y011809D01*
X014520Y011886D01*
X014596Y011886D01*
X014673Y011809D01*
X014673Y011579D01*
X014903Y011579D02*
X014903Y011809D01*
X014826Y011886D01*
X014750Y011886D01*
X014673Y011809D01*
X014673Y012039D02*
X014673Y012193D01*
X014443Y012039D02*
X014443Y012346D01*
X014443Y012500D02*
X014750Y012500D01*
X014903Y012653D01*
X014750Y012807D01*
X014443Y012807D01*
X014520Y012960D02*
X014443Y013037D01*
X014443Y013190D01*
X014520Y013267D01*
X014673Y013267D01*
X014673Y013114D01*
X014826Y013267D02*
X014903Y013190D01*
X014903Y013037D01*
X014826Y012960D01*
X014520Y012960D01*
X014673Y012807D02*
X014673Y012500D01*
X014903Y012346D02*
X014903Y012039D01*
X014443Y012039D01*
X014443Y013421D02*
X014443Y013727D01*
X014443Y013881D02*
X014443Y014188D01*
X014443Y014341D02*
X014443Y014571D01*
X014520Y014648D01*
X014596Y014648D01*
X014673Y014571D01*
X014673Y014341D01*
X014443Y014341D02*
X014903Y014341D01*
X014903Y014571D01*
X014826Y014648D01*
X014750Y014648D01*
X014673Y014571D01*
X014520Y014802D02*
X014443Y014878D01*
X014443Y015032D01*
X014520Y015108D01*
X014826Y015108D01*
X014903Y015032D01*
X014903Y014878D01*
X014826Y014802D01*
X014520Y014802D01*
X014443Y015262D02*
X014903Y015262D01*
X014443Y015569D01*
X014903Y015569D01*
X014903Y015722D02*
X014443Y015722D01*
X014443Y016029D01*
X014673Y015876D02*
X014673Y015722D01*
X014903Y015722D02*
X014903Y016029D01*
X014826Y016643D02*
X014520Y016643D01*
X014443Y016720D01*
X014443Y016873D01*
X014520Y016950D01*
X014443Y017103D02*
X014750Y017103D01*
X014903Y017257D01*
X014750Y017410D01*
X014443Y017410D01*
X014443Y017564D02*
X014903Y017564D01*
X014903Y017794D01*
X014826Y017871D01*
X014673Y017871D01*
X014596Y017794D01*
X014596Y017564D01*
X014673Y017410D02*
X014673Y017103D01*
X014826Y016950D02*
X014903Y016873D01*
X014903Y016720D01*
X014826Y016643D01*
X014903Y018024D02*
X014443Y018024D01*
X014443Y018331D01*
X014673Y018177D02*
X014673Y018024D01*
X014903Y018024D02*
X014903Y018331D01*
X014903Y018945D02*
X014596Y018945D01*
X014443Y019098D01*
X014596Y019252D01*
X014903Y019252D01*
X014826Y019405D02*
X014903Y019482D01*
X014903Y019635D01*
X014826Y019712D01*
X014750Y019712D01*
X014443Y019405D01*
X014443Y019712D01*
X014903Y014188D02*
X014903Y013881D01*
X014443Y013881D01*
X014673Y013881D02*
X014673Y014034D01*
X014903Y013421D02*
X014443Y013421D01*
X014443Y009431D02*
X014903Y009431D01*
D11*
X012222Y003857D03*
X010254Y003857D03*
X020800Y007209D03*
X020800Y009209D03*
X020842Y016873D03*
X020842Y022279D03*
D12*
X018815Y021058D03*
X018815Y014808D03*
X018815Y013558D03*
X018815Y012308D03*
X018815Y007308D03*
X011315Y007308D03*
X011315Y021058D03*
D13*
X003927Y020684D03*
X003927Y021684D03*
X003927Y022684D03*
X003927Y023684D03*
X003927Y024684D03*
X002927Y024684D03*
X002927Y023684D03*
X002927Y022684D03*
X002927Y021684D03*
X002927Y020684D03*
X002927Y019684D03*
X003927Y019684D03*
X003927Y018684D03*
X003927Y017684D03*
X003927Y016684D03*
X003927Y015684D03*
X003927Y014684D03*
X003927Y013684D03*
X003927Y012684D03*
X003927Y011684D03*
X003927Y010684D03*
X003927Y009684D03*
X003927Y008684D03*
X003927Y007684D03*
X003927Y006684D03*
X003927Y005684D03*
X003927Y004684D03*
X003927Y003684D03*
X003927Y002684D03*
X002927Y002684D03*
X002927Y003684D03*
X002927Y004684D03*
X002927Y005684D03*
X002927Y006684D03*
X002927Y007684D03*
X002927Y008684D03*
X002927Y009684D03*
X002927Y010684D03*
X002927Y011684D03*
X002927Y012684D03*
X002927Y013684D03*
X002927Y014684D03*
X002927Y015684D03*
X002927Y016684D03*
X002927Y017684D03*
X002927Y018684D03*
X006569Y006109D03*
X005819Y005609D03*
X006569Y005109D03*
X005819Y004609D03*
X006569Y004109D03*
X005819Y003609D03*
X006569Y003109D03*
X021927Y002684D03*
X022927Y002684D03*
X022927Y003684D03*
X022927Y004684D03*
X022927Y005684D03*
X022927Y006684D03*
X022927Y007684D03*
X022927Y008684D03*
X022927Y009684D03*
X022927Y010684D03*
X022927Y011684D03*
X022927Y012684D03*
X022927Y013684D03*
X022927Y014684D03*
X022927Y015684D03*
X022927Y016684D03*
X022927Y017684D03*
X022927Y018684D03*
X022927Y019684D03*
X022927Y020684D03*
X022927Y021684D03*
X022927Y022684D03*
X022927Y023684D03*
X022927Y024684D03*
X021927Y024684D03*
X021927Y023684D03*
X021927Y022684D03*
X021927Y021684D03*
X021927Y020684D03*
X021927Y019684D03*
X021927Y018684D03*
X021927Y017684D03*
X021927Y016684D03*
X021927Y015684D03*
X021927Y014684D03*
X021927Y013684D03*
X021927Y012684D03*
X021927Y011684D03*
X021927Y010684D03*
X021927Y009684D03*
X021927Y008684D03*
X021927Y007684D03*
X021927Y006684D03*
X021927Y005684D03*
X021927Y004684D03*
X021927Y003684D03*
D14*
X020356Y002765D03*
X018702Y002765D03*
X018702Y004851D03*
X020356Y004851D03*
X015925Y004879D03*
X014271Y004879D03*
X014271Y002792D03*
X015925Y002792D03*
D15*
X020911Y013164D03*
X006161Y022364D03*
X006161Y023364D03*
X006161Y024364D03*
X006161Y025364D03*
D16*
X008785Y025266D02*
X009182Y025266D01*
X009182Y024774D02*
X008785Y024774D01*
X008785Y024282D02*
X009182Y024282D01*
X009182Y023789D02*
X008785Y023789D01*
X008785Y023297D02*
X009182Y023297D01*
X009182Y022805D02*
X008785Y022805D01*
X008785Y022313D02*
X009182Y022313D01*
X007682Y021153D02*
X007285Y021153D01*
X007285Y020660D02*
X007682Y020660D01*
X007682Y020168D02*
X007285Y020168D01*
X007285Y019676D02*
X007682Y019676D01*
X005932Y019676D02*
X005535Y019676D01*
X005535Y020168D02*
X005932Y020168D01*
X005932Y020660D02*
X005535Y020660D01*
X005535Y021153D02*
X005932Y021153D01*
X005932Y018153D02*
X005535Y018153D01*
X005535Y017660D02*
X005932Y017660D01*
X005932Y017168D02*
X005535Y017168D01*
X005535Y016676D02*
X005932Y016676D01*
X005785Y010891D02*
X006182Y010891D01*
X006182Y010399D02*
X005785Y010399D01*
X005785Y009907D02*
X006182Y009907D01*
X006182Y009414D02*
X005785Y009414D01*
X005785Y008922D02*
X006182Y008922D01*
X006182Y008430D02*
X005785Y008430D01*
X005785Y007938D02*
X006182Y007938D01*
X007319Y006086D02*
X007716Y006086D01*
X007716Y005594D02*
X007319Y005594D01*
X007319Y005101D02*
X007716Y005101D01*
X007716Y004609D02*
X007319Y004609D01*
X007319Y004117D02*
X007716Y004117D01*
X007716Y003625D02*
X007319Y003625D01*
X007319Y003133D02*
X007716Y003133D01*
X008285Y007938D02*
X008682Y007938D01*
X008682Y008430D02*
X008285Y008430D01*
X008285Y008922D02*
X008682Y008922D01*
X008682Y009414D02*
X008285Y009414D01*
X008285Y009907D02*
X008682Y009907D01*
X008682Y010399D02*
X008285Y010399D01*
X008285Y010891D02*
X008682Y010891D01*
D17*
X008484Y009907D02*
X010036Y009914D01*
X009207Y009409D02*
X009207Y007284D01*
X008593Y006893D01*
X006094Y006898D01*
X006569Y006109D02*
X007319Y006109D01*
X007319Y005609D02*
X005819Y005609D01*
X006569Y005109D02*
X007319Y005109D01*
X007319Y004609D02*
X005819Y004609D01*
X006569Y004109D02*
X007319Y004109D01*
X007319Y003609D02*
X005819Y003609D01*
X006569Y003109D02*
X007319Y003109D01*
X008484Y009414D02*
X009207Y009409D01*
X004240Y022185D02*
X002340Y022185D01*
D18*
X002188Y002513D02*
X002409Y002513D01*
X002422Y002475D02*
X002461Y002399D01*
X002511Y002329D01*
X002572Y002269D01*
X002614Y002238D01*
X002536Y002259D01*
X002314Y002387D01*
X002134Y002568D01*
X002006Y002789D01*
X001939Y003036D01*
X001931Y003164D01*
X001931Y003268D01*
X001931Y024102D01*
X001941Y024142D01*
X001931Y024205D01*
X001931Y024268D01*
X001920Y024295D01*
X001911Y024387D01*
X001931Y024672D01*
X002014Y024945D01*
X002156Y025194D01*
X002349Y025404D01*
X002585Y025566D01*
X002851Y025672D01*
X002962Y025696D01*
X005761Y025696D01*
X005644Y025578D01*
X005644Y025365D01*
X006161Y025365D01*
X006161Y025364D01*
X005644Y025364D01*
X005644Y025150D01*
X005944Y024850D01*
X005691Y024597D01*
X005328Y024525D01*
X005236Y024562D01*
X005078Y024562D01*
X004932Y024502D01*
X004820Y024390D01*
X004759Y024244D01*
X004759Y024085D01*
X004820Y023939D01*
X004932Y023827D01*
X005078Y023766D01*
X005236Y023766D01*
X005383Y023827D01*
X005453Y023897D01*
X005847Y023976D01*
X005955Y023868D01*
X006270Y023868D01*
X006262Y023861D01*
X005955Y023861D01*
X005664Y023570D01*
X005664Y023563D01*
X005376Y023486D01*
X005184Y023494D01*
X005156Y023522D01*
X005010Y023582D01*
X004851Y023582D01*
X004705Y023522D01*
X004593Y023410D01*
X004533Y023263D01*
X004533Y023105D01*
X004593Y022959D01*
X004705Y022847D01*
X004851Y022786D01*
X005010Y022786D01*
X005156Y022847D01*
X005164Y022854D01*
X005383Y022845D01*
X005432Y022839D01*
X005446Y022843D01*
X005461Y022842D01*
X005507Y022859D01*
X005868Y022955D01*
X005955Y022868D01*
X006367Y022868D01*
X006492Y022993D01*
X007385Y022863D01*
X007966Y022282D01*
X007966Y021461D01*
X007955Y021472D01*
X007902Y021510D01*
X007843Y021540D01*
X007780Y021561D01*
X007715Y021571D01*
X007484Y021571D01*
X007484Y021153D01*
X007484Y021153D01*
X007484Y021571D01*
X007252Y021571D01*
X007187Y021561D01*
X007125Y021540D01*
X007066Y021510D01*
X007013Y021472D01*
X006966Y021425D01*
X006928Y021372D01*
X006898Y021313D01*
X006877Y021251D01*
X006867Y021186D01*
X006867Y021153D01*
X007483Y021153D01*
X007483Y021152D01*
X006867Y021152D01*
X006867Y021120D01*
X006351Y021120D01*
X006351Y021152D01*
X005734Y021152D01*
X005734Y021153D01*
X005734Y021153D01*
X005734Y021571D01*
X005965Y021571D01*
X006030Y021561D01*
X006093Y021540D01*
X006152Y021510D01*
X006205Y021472D01*
X006251Y021425D01*
X006290Y021372D01*
X006320Y021313D01*
X006340Y021251D01*
X006351Y021186D01*
X006351Y021153D01*
X005734Y021153D01*
X005734Y021571D01*
X005502Y021571D01*
X005437Y021561D01*
X005375Y021540D01*
X005316Y021510D01*
X005263Y021472D01*
X005216Y021425D01*
X005178Y021372D01*
X005148Y021313D01*
X005127Y021251D01*
X005117Y021186D01*
X005117Y021153D01*
X005733Y021153D01*
X005733Y021152D01*
X005117Y021152D01*
X005117Y021149D01*
X005047Y021423D01*
X005038Y021468D01*
X005035Y021474D01*
X005033Y021480D01*
X005006Y021516D01*
X004520Y022235D01*
X004520Y022241D01*
X004478Y022344D01*
X004399Y022422D01*
X004388Y022427D01*
X004452Y022580D01*
X004452Y022788D01*
X004372Y022981D01*
X004224Y023129D01*
X004091Y023184D01*
X004224Y023239D01*
X004372Y023387D01*
X004452Y023580D01*
X004452Y023788D01*
X004372Y023981D01*
X004224Y024129D01*
X004117Y024173D01*
X004136Y024179D01*
X004212Y024218D01*
X004282Y024269D01*
X004342Y024329D01*
X004393Y024399D01*
X004432Y024475D01*
X004458Y024556D01*
X004472Y024641D01*
X004472Y024684D01*
X003927Y024684D01*
X003927Y024684D01*
X004472Y024684D01*
X004472Y024727D01*
X004458Y024812D01*
X004432Y024893D01*
X004393Y024970D01*
X004342Y025039D01*
X004282Y025100D01*
X004212Y025150D01*
X004136Y025189D01*
X004054Y025215D01*
X003970Y025229D01*
X003927Y025229D01*
X003927Y024684D01*
X003927Y024684D01*
X003927Y025229D01*
X003884Y025229D01*
X003799Y025215D01*
X003718Y025189D01*
X003641Y025150D01*
X003572Y025100D01*
X003511Y025039D01*
X003461Y024970D01*
X003427Y024903D01*
X003393Y024970D01*
X003342Y025039D01*
X003282Y025100D01*
X003212Y025150D01*
X003136Y025189D01*
X003054Y025215D01*
X002970Y025229D01*
X002927Y025229D01*
X002927Y024684D01*
X002927Y024684D01*
X003382Y024684D01*
X003926Y024684D01*
X003926Y024684D01*
X003382Y024684D01*
X002927Y024684D01*
X002927Y024684D01*
X002927Y025229D01*
X002884Y025229D01*
X002799Y025215D01*
X002718Y025189D01*
X002641Y025150D01*
X002572Y025100D01*
X002511Y025039D01*
X002461Y024970D01*
X002422Y024893D01*
X002395Y024812D01*
X002382Y024727D01*
X002382Y024684D01*
X002382Y024641D01*
X002395Y024556D01*
X002422Y024475D01*
X002461Y024399D01*
X002511Y024329D01*
X002572Y024269D01*
X002641Y024218D01*
X002718Y024179D01*
X002736Y024173D01*
X002629Y024129D01*
X002482Y023981D01*
X002402Y023788D01*
X002402Y023580D01*
X002482Y023387D01*
X002629Y023239D01*
X002763Y023184D01*
X002629Y023129D01*
X002482Y022981D01*
X002402Y022788D01*
X002402Y022583D01*
X002261Y022583D01*
X002115Y022522D01*
X002003Y022410D01*
X001942Y022264D01*
X001942Y022106D01*
X002003Y021959D01*
X002115Y021847D01*
X002261Y021787D01*
X002402Y021787D01*
X002402Y021580D01*
X002482Y021387D01*
X002629Y021239D01*
X002763Y021184D01*
X002629Y021129D01*
X002482Y020981D01*
X002402Y020788D01*
X002402Y020580D01*
X002482Y020387D01*
X002629Y020239D01*
X002763Y020184D01*
X002629Y020129D01*
X002482Y019981D01*
X002402Y019788D01*
X002402Y019580D01*
X002482Y019387D01*
X002629Y019239D01*
X002763Y019184D01*
X002629Y019129D01*
X002482Y018981D01*
X002402Y018788D01*
X002402Y018580D01*
X002482Y018387D01*
X002629Y018239D01*
X002763Y018184D01*
X002629Y018129D01*
X002482Y017981D01*
X002402Y017788D01*
X002402Y017580D01*
X002482Y017387D01*
X002629Y017239D01*
X002763Y017184D01*
X002629Y017129D01*
X002482Y016981D01*
X002402Y016788D01*
X002402Y016580D01*
X002482Y016387D01*
X002629Y016239D01*
X002763Y016184D01*
X002629Y016129D01*
X002482Y015981D01*
X002402Y015788D01*
X002402Y015580D01*
X002482Y015387D01*
X002629Y015239D01*
X002763Y015184D01*
X002629Y015129D01*
X002482Y014981D01*
X002402Y014788D01*
X002402Y014580D01*
X002482Y014387D01*
X002629Y014239D01*
X002763Y014184D01*
X002629Y014129D01*
X002482Y013981D01*
X002402Y013788D01*
X002402Y013580D01*
X002482Y013387D01*
X002629Y013239D01*
X002763Y013184D01*
X002629Y013129D01*
X002482Y012981D01*
X002402Y012788D01*
X002402Y012580D01*
X002482Y012387D01*
X002629Y012239D01*
X002763Y012184D01*
X002629Y012129D01*
X002482Y011981D01*
X002402Y011788D01*
X002402Y011580D01*
X002482Y011387D01*
X002629Y011239D01*
X002763Y011184D01*
X002629Y011129D01*
X002482Y010981D01*
X002402Y010788D01*
X002402Y010580D01*
X002482Y010387D01*
X002629Y010239D01*
X002763Y010184D01*
X002629Y010129D01*
X002482Y009981D01*
X002402Y009788D01*
X002402Y009580D01*
X002482Y009387D01*
X002629Y009239D01*
X002763Y009184D01*
X002629Y009129D01*
X002482Y008981D01*
X002402Y008788D01*
X002402Y008580D01*
X002482Y008387D01*
X002629Y008239D01*
X002763Y008184D01*
X002629Y008129D01*
X002482Y007981D01*
X002402Y007788D01*
X002402Y007580D01*
X002482Y007387D01*
X002629Y007239D01*
X002763Y007184D01*
X002629Y007129D01*
X002482Y006981D01*
X002402Y006788D01*
X002402Y006580D01*
X002482Y006387D01*
X002629Y006239D01*
X002763Y006184D01*
X002629Y006129D01*
X002482Y005981D01*
X002402Y005788D01*
X002402Y005580D01*
X002482Y005387D01*
X002629Y005239D01*
X002763Y005184D01*
X002629Y005129D01*
X002482Y004981D01*
X002402Y004788D01*
X002402Y004580D01*
X002482Y004387D01*
X002629Y004239D01*
X002736Y004195D01*
X002718Y004189D01*
X002641Y004150D01*
X002572Y004100D01*
X002511Y004039D01*
X002461Y003970D01*
X002422Y003893D01*
X002395Y003812D01*
X002382Y003727D01*
X002382Y003684D01*
X002382Y003641D01*
X002395Y003556D01*
X002422Y003475D01*
X002461Y003399D01*
X002511Y003329D01*
X002572Y003269D01*
X002641Y003218D01*
X002708Y003184D01*
X002641Y003150D01*
X002572Y003100D01*
X002511Y003039D01*
X002461Y002970D01*
X002422Y002893D01*
X002395Y002812D01*
X002382Y002727D01*
X002382Y002684D01*
X002382Y002641D01*
X002395Y002556D01*
X002422Y002475D01*
X002382Y002684D02*
X002926Y002684D01*
X002926Y002684D01*
X002382Y002684D01*
X002386Y002752D02*
X002027Y002752D01*
X001952Y002991D02*
X002476Y002991D01*
X002626Y003229D02*
X001931Y003229D01*
X001931Y003468D02*
X002426Y003468D01*
X002382Y003684D02*
X002926Y003684D01*
X002926Y003684D01*
X002382Y003684D01*
X002382Y003706D02*
X001931Y003706D01*
X001931Y003945D02*
X002448Y003945D01*
X002706Y004183D02*
X001931Y004183D01*
X001931Y004422D02*
X002467Y004422D01*
X002402Y004660D02*
X001931Y004660D01*
X001931Y004899D02*
X002448Y004899D01*
X002650Y005137D02*
X001931Y005137D01*
X001931Y005376D02*
X002493Y005376D01*
X002402Y005614D02*
X001931Y005614D01*
X001931Y005853D02*
X002429Y005853D01*
X002592Y006092D02*
X001931Y006092D01*
X001931Y006330D02*
X002539Y006330D01*
X002406Y006569D02*
X001931Y006569D01*
X001931Y006807D02*
X002410Y006807D01*
X002546Y007046D02*
X001931Y007046D01*
X001931Y007284D02*
X002584Y007284D01*
X002426Y007523D02*
X001931Y007523D01*
X001931Y007761D02*
X002402Y007761D01*
X002500Y008000D02*
X001931Y008000D01*
X001931Y008238D02*
X002631Y008238D01*
X002444Y008477D02*
X001931Y008477D01*
X001931Y008716D02*
X002402Y008716D01*
X002471Y008954D02*
X001931Y008954D01*
X001931Y009193D02*
X002742Y009193D01*
X002463Y009431D02*
X001931Y009431D01*
X001931Y009670D02*
X002402Y009670D01*
X002452Y009908D02*
X001931Y009908D01*
X001931Y010147D02*
X002673Y010147D01*
X002483Y010385D02*
X001931Y010385D01*
X001931Y010624D02*
X002402Y010624D01*
X002433Y010862D02*
X001931Y010862D01*
X001931Y011101D02*
X002601Y011101D01*
X002529Y011340D02*
X001931Y011340D01*
X001931Y011578D02*
X002403Y011578D01*
X002414Y011817D02*
X001931Y011817D01*
X001931Y012055D02*
X002556Y012055D01*
X002575Y012294D02*
X001931Y012294D01*
X001931Y012532D02*
X002422Y012532D01*
X002402Y012771D02*
X001931Y012771D01*
X001931Y013009D02*
X002510Y013009D01*
X002621Y013248D02*
X001931Y013248D01*
X001931Y013486D02*
X002441Y013486D01*
X002402Y013725D02*
X001931Y013725D01*
X001931Y013964D02*
X002474Y013964D01*
X002719Y014202D02*
X001931Y014202D01*
X001931Y014441D02*
X002460Y014441D01*
X002402Y014679D02*
X001931Y014679D01*
X001931Y014918D02*
X002456Y014918D01*
X002695Y015156D02*
X001931Y015156D01*
X001931Y015395D02*
X002479Y015395D01*
X002402Y015633D02*
X001931Y015633D01*
X001931Y015872D02*
X002437Y015872D01*
X002611Y016110D02*
X001931Y016110D01*
X001931Y016349D02*
X002520Y016349D01*
X002402Y016587D02*
X001931Y016587D01*
X001931Y016826D02*
X002418Y016826D01*
X002565Y017065D02*
X001931Y017065D01*
X001931Y017303D02*
X002566Y017303D01*
X002418Y017542D02*
X001931Y017542D01*
X001931Y017780D02*
X002402Y017780D01*
X002519Y018019D02*
X001931Y018019D01*
X001931Y018257D02*
X002611Y018257D01*
X002437Y018496D02*
X001931Y018496D01*
X001931Y018734D02*
X002402Y018734D01*
X002478Y018973D02*
X001931Y018973D01*
X001931Y019211D02*
X002696Y019211D01*
X002456Y019450D02*
X001931Y019450D01*
X001931Y019689D02*
X002402Y019689D01*
X002459Y019927D02*
X001931Y019927D01*
X001931Y020166D02*
X002718Y020166D01*
X002475Y020404D02*
X001931Y020404D01*
X001931Y020643D02*
X002402Y020643D01*
X002440Y020881D02*
X001931Y020881D01*
X001931Y021120D02*
X002620Y021120D01*
X002510Y021358D02*
X001931Y021358D01*
X001931Y021597D02*
X002402Y021597D01*
X002144Y021835D02*
X001931Y021835D01*
X001931Y022074D02*
X001956Y022074D01*
X001962Y022313D02*
X001931Y022313D01*
X001931Y022551D02*
X002184Y022551D01*
X002402Y022790D02*
X001931Y022790D01*
X001931Y023028D02*
X002529Y023028D01*
X002602Y023267D02*
X001931Y023267D01*
X001931Y023505D02*
X002433Y023505D01*
X002402Y023744D02*
X001931Y023744D01*
X001931Y023982D02*
X002483Y023982D01*
X002637Y024221D02*
X001931Y024221D01*
X001916Y024459D02*
X002430Y024459D01*
X002382Y024684D02*
X002926Y024684D01*
X002926Y024684D01*
X002382Y024684D01*
X002382Y024698D02*
X001939Y024698D01*
X002011Y024936D02*
X002444Y024936D01*
X002690Y025175D02*
X002145Y025175D01*
X002363Y025414D02*
X005644Y025414D01*
X005644Y025175D02*
X004163Y025175D01*
X003927Y025175D02*
X003927Y025175D01*
X003690Y025175D02*
X003163Y025175D01*
X002927Y025175D02*
X002927Y025175D01*
X002927Y024936D02*
X002927Y024936D01*
X002927Y024698D02*
X002927Y024698D01*
X003410Y024936D02*
X003444Y024936D01*
X003927Y024936D02*
X003927Y024936D01*
X003927Y024698D02*
X003927Y024698D01*
X004410Y024936D02*
X005858Y024936D01*
X005792Y024698D02*
X004472Y024698D01*
X004424Y024459D02*
X004889Y024459D01*
X004759Y024221D02*
X004216Y024221D01*
X004371Y023982D02*
X004802Y023982D01*
X004452Y023744D02*
X005838Y023744D01*
X005447Y023505D02*
X005173Y023505D01*
X004931Y023184D02*
X005411Y023164D01*
X006161Y023364D01*
X007536Y023164D01*
X008286Y022414D01*
X008286Y020789D01*
X009286Y019789D01*
X010036Y019039D01*
X010452Y019211D02*
X014245Y019211D01*
X014223Y019189D02*
X014223Y019189D01*
X014223Y019007D01*
X014288Y018942D01*
X014505Y018725D01*
X014687Y018725D01*
X014994Y018725D01*
X015123Y018854D01*
X015123Y019036D01*
X015061Y019098D01*
X015123Y019161D01*
X015123Y019343D01*
X015099Y019367D01*
X015123Y019391D01*
X015123Y019481D01*
X015123Y019573D01*
X015123Y019726D01*
X014994Y019855D01*
X014918Y019932D01*
X014735Y019932D01*
X014659Y019932D01*
X014596Y019870D01*
X014534Y019932D01*
X014352Y019932D01*
X014223Y019803D01*
X014223Y019496D01*
X014223Y019314D01*
X014285Y019252D01*
X014223Y019189D01*
X014257Y018973D02*
X010486Y018973D01*
X010486Y019129D02*
X010417Y019294D01*
X010291Y019421D01*
X010126Y019489D01*
X010039Y019489D01*
X009557Y019971D01*
X008606Y020922D01*
X008606Y021956D01*
X008706Y021915D01*
X009262Y021915D01*
X009408Y021975D01*
X009520Y022087D01*
X009581Y022234D01*
X009581Y022392D01*
X009520Y022539D01*
X009500Y022559D01*
X009520Y022579D01*
X009581Y022726D01*
X009581Y022884D01*
X009520Y023031D01*
X009500Y023051D01*
X009520Y023072D01*
X009581Y023218D01*
X009581Y023377D01*
X009520Y023523D01*
X009500Y023543D01*
X009520Y023564D01*
X009581Y023710D01*
X009581Y023869D01*
X009542Y023962D01*
X009661Y023962D01*
X009966Y023657D01*
X009966Y023353D01*
X009966Y023226D01*
X010015Y023108D01*
X010915Y022208D01*
X010936Y022179D01*
X010960Y022163D01*
X010980Y022143D01*
X011013Y022129D01*
X012324Y021295D01*
X012335Y021283D01*
X012378Y021261D01*
X012418Y021235D01*
X012434Y021233D01*
X012448Y021225D01*
X012496Y021222D01*
X012543Y021213D01*
X012559Y021217D01*
X018169Y020787D01*
X018221Y020662D01*
X018418Y020465D01*
X018495Y020433D01*
X018495Y015433D01*
X018418Y015401D01*
X018221Y015205D01*
X018115Y014947D01*
X018115Y014669D01*
X018221Y014412D01*
X018418Y014215D01*
X018494Y014183D01*
X018418Y014151D01*
X018221Y013955D01*
X018115Y013697D01*
X018115Y013419D01*
X018221Y013162D01*
X018418Y012965D01*
X018494Y012933D01*
X018418Y012901D01*
X018221Y012705D01*
X018115Y012447D01*
X018115Y012169D01*
X018221Y011912D01*
X018418Y011715D01*
X018675Y011608D01*
X018954Y011608D01*
X019211Y011715D01*
X019408Y011912D01*
X019515Y012169D01*
X019515Y012447D01*
X019408Y012705D01*
X019211Y012901D01*
X019135Y012933D01*
X019211Y012965D01*
X019254Y013008D01*
X019379Y013008D01*
X019581Y013092D01*
X020108Y013619D01*
X020263Y013774D01*
X020347Y013976D01*
X020347Y015600D01*
X020990Y016243D01*
X021103Y016243D01*
X021413Y016553D01*
X021482Y016387D01*
X021629Y016239D01*
X021763Y016184D01*
X021629Y016129D01*
X021482Y015981D01*
X021402Y015788D01*
X021402Y015580D01*
X021482Y015387D01*
X021629Y015239D01*
X021763Y015184D01*
X021629Y015129D01*
X021482Y014981D01*
X021402Y014788D01*
X021402Y014580D01*
X021482Y014387D01*
X021629Y014239D01*
X021763Y014184D01*
X021629Y014129D01*
X021482Y013981D01*
X021402Y013788D01*
X021402Y013580D01*
X021482Y013387D01*
X021629Y013239D01*
X021763Y013184D01*
X021629Y013129D01*
X021482Y012981D01*
X021402Y012788D01*
X021402Y012580D01*
X021482Y012387D01*
X021629Y012239D01*
X021763Y012184D01*
X021629Y012129D01*
X021482Y011981D01*
X021402Y011788D01*
X021402Y011580D01*
X021482Y011387D01*
X021629Y011239D01*
X021763Y011184D01*
X021629Y011129D01*
X021482Y010981D01*
X021402Y010788D01*
X021402Y010580D01*
X021482Y010387D01*
X021629Y010239D01*
X021763Y010184D01*
X021629Y010129D01*
X021482Y009981D01*
X021402Y009788D01*
X021402Y009580D01*
X021482Y009387D01*
X021629Y009239D01*
X021763Y009184D01*
X021629Y009129D01*
X021482Y008981D01*
X021402Y008788D01*
X021402Y008580D01*
X021482Y008387D01*
X021629Y008239D01*
X021763Y008184D01*
X021629Y008129D01*
X021482Y007981D01*
X021402Y007788D01*
X021402Y007580D01*
X021440Y007487D01*
X021069Y007858D01*
X020800Y007858D01*
X020800Y007209D01*
X020799Y007209D01*
X020799Y007208D01*
X020150Y007208D01*
X020150Y006939D01*
X020530Y006559D01*
X020799Y006559D01*
X020799Y007208D01*
X020800Y007208D01*
X020800Y006559D01*
X021069Y006559D01*
X021450Y006939D01*
X021450Y007208D01*
X020800Y007208D01*
X020800Y007209D01*
X021450Y007209D01*
X021450Y007465D01*
X021482Y007387D01*
X021629Y007239D01*
X021763Y007184D01*
X021629Y007129D01*
X021482Y006981D01*
X021402Y006788D01*
X021402Y006580D01*
X021482Y006387D01*
X021629Y006239D01*
X021763Y006184D01*
X021629Y006129D01*
X021482Y005981D01*
X021402Y005788D01*
X021402Y005580D01*
X021482Y005387D01*
X021629Y005239D01*
X021763Y005184D01*
X021629Y005129D01*
X021482Y004981D01*
X021402Y004788D01*
X021402Y004580D01*
X021482Y004387D01*
X021629Y004239D01*
X021763Y004184D01*
X021629Y004129D01*
X021482Y003981D01*
X021402Y003788D01*
X021402Y003580D01*
X021482Y003387D01*
X021629Y003239D01*
X021763Y003184D01*
X021629Y003129D01*
X021482Y002981D01*
X021402Y002788D01*
X021402Y002580D01*
X021482Y002387D01*
X021629Y002239D01*
X021769Y002181D01*
X020793Y002183D01*
X021076Y002467D01*
X021076Y002737D01*
X020384Y002737D01*
X020384Y002792D01*
X021076Y002792D01*
X021076Y003063D01*
X020654Y003485D01*
X020384Y003485D01*
X020384Y002793D01*
X020328Y002793D01*
X020328Y003485D01*
X020058Y003485D01*
X019636Y003063D01*
X019636Y002792D01*
X020328Y002792D01*
X020328Y002737D01*
X019636Y002737D01*
X019636Y002467D01*
X019917Y002185D01*
X019143Y002187D01*
X019422Y002467D01*
X019422Y002737D01*
X018730Y002737D01*
X018730Y002792D01*
X019422Y002792D01*
X019422Y003063D01*
X019001Y003485D01*
X018730Y003485D01*
X018730Y002793D01*
X018675Y002793D01*
X018675Y003485D01*
X018404Y003485D01*
X017982Y003063D01*
X017982Y002792D01*
X018674Y002792D01*
X018674Y002737D01*
X017982Y002737D01*
X017982Y002467D01*
X018260Y002189D01*
X016343Y002192D01*
X016645Y002494D01*
X016645Y002765D01*
X015953Y002765D01*
X015953Y002820D01*
X016645Y002820D01*
X016645Y003091D01*
X016223Y003512D01*
X015952Y003512D01*
X015952Y002820D01*
X015897Y002820D01*
X015897Y002765D01*
X015205Y002765D01*
X015205Y002494D01*
X015505Y002194D01*
X014693Y002196D01*
X014991Y002494D01*
X014991Y002765D01*
X014299Y002765D01*
X014299Y002820D01*
X014991Y002820D01*
X014991Y003091D01*
X014569Y003512D01*
X014299Y003512D01*
X014299Y002820D01*
X014244Y002820D01*
X014244Y003512D01*
X013973Y003512D01*
X013551Y003091D01*
X013551Y002820D01*
X014243Y002820D01*
X014243Y002765D01*
X013551Y002765D01*
X013551Y002494D01*
X013848Y002198D01*
X004210Y002217D01*
X004212Y002218D01*
X004282Y002269D01*
X004342Y002329D01*
X004393Y002399D01*
X004432Y002475D01*
X004458Y002556D01*
X004472Y002641D01*
X004472Y002684D01*
X003927Y002684D01*
X003927Y002684D01*
X004472Y002684D01*
X004472Y002727D01*
X004458Y002812D01*
X004432Y002893D01*
X004393Y002970D01*
X004342Y003039D01*
X004282Y003100D01*
X004212Y003150D01*
X004145Y003184D01*
X004212Y003218D01*
X004282Y003269D01*
X004342Y003329D01*
X004393Y003399D01*
X004432Y003475D01*
X004458Y003556D01*
X004472Y003641D01*
X004472Y003684D01*
X003927Y003684D01*
X003927Y003684D01*
X004472Y003684D01*
X004472Y003727D01*
X004458Y003812D01*
X004432Y003893D01*
X004393Y003970D01*
X004342Y004039D01*
X004282Y004100D01*
X004212Y004150D01*
X004136Y004189D01*
X004117Y004195D01*
X004224Y004239D01*
X004372Y004387D01*
X004452Y004580D01*
X004452Y004788D01*
X004372Y004981D01*
X004224Y005129D01*
X004091Y005184D01*
X004224Y005239D01*
X004372Y005387D01*
X004452Y005580D01*
X004452Y005788D01*
X004372Y005981D01*
X004224Y006129D01*
X004091Y006184D01*
X004224Y006239D01*
X004372Y006387D01*
X004452Y006580D01*
X004452Y006788D01*
X004372Y006981D01*
X004224Y007129D01*
X004091Y007184D01*
X004224Y007239D01*
X004372Y007387D01*
X004452Y007580D01*
X004452Y007788D01*
X004372Y007981D01*
X004224Y008129D01*
X004091Y008184D01*
X004224Y008239D01*
X004372Y008387D01*
X004452Y008580D01*
X004452Y008766D01*
X004556Y008766D01*
X005033Y008289D01*
X005062Y008260D01*
X004998Y008233D01*
X004886Y008121D01*
X004825Y007975D01*
X004825Y007816D01*
X004886Y007670D01*
X004998Y007558D01*
X005135Y007501D01*
X005054Y007468D01*
X004942Y007356D01*
X004882Y007209D01*
X004882Y007051D01*
X004942Y006905D01*
X005054Y006793D01*
X005201Y006732D01*
X005359Y006732D01*
X005505Y006793D01*
X005617Y006905D01*
X005678Y007051D01*
X005678Y007107D01*
X005750Y007107D01*
X005696Y006977D01*
X005696Y006819D01*
X005757Y006672D01*
X005869Y006560D01*
X006015Y006500D01*
X006174Y006500D01*
X006249Y006531D01*
X006125Y006407D01*
X006045Y006214D01*
X006045Y006084D01*
X005924Y006134D01*
X005715Y006134D01*
X005522Y006054D01*
X005375Y005907D01*
X005295Y005714D01*
X005295Y005505D01*
X005375Y005312D01*
X005522Y005164D01*
X005655Y005109D01*
X005522Y005054D01*
X005375Y004907D01*
X005295Y004714D01*
X005295Y004505D01*
X005375Y004312D01*
X005522Y004164D01*
X005655Y004109D01*
X005522Y004054D01*
X005375Y003907D01*
X005295Y003714D01*
X005295Y003505D01*
X005375Y003312D01*
X005522Y003164D01*
X005715Y003084D01*
X005924Y003084D01*
X006045Y003135D01*
X006045Y003005D01*
X006125Y002812D01*
X006272Y002664D01*
X006465Y002584D01*
X006674Y002584D01*
X006867Y002664D01*
X007014Y002812D01*
X007021Y002829D01*
X007059Y002829D01*
X007093Y002795D01*
X007240Y002734D01*
X007795Y002734D01*
X007941Y002795D01*
X008053Y002907D01*
X008114Y003054D01*
X008114Y003212D01*
X008053Y003359D01*
X008033Y003379D01*
X008053Y003399D01*
X008114Y003546D01*
X008114Y003704D01*
X008053Y003851D01*
X008033Y003871D01*
X008053Y003891D01*
X008114Y004038D01*
X008114Y004196D01*
X008053Y004343D01*
X008033Y004363D01*
X008053Y004384D01*
X008114Y004530D01*
X008114Y004689D01*
X008053Y004835D01*
X008033Y004855D01*
X008053Y004876D01*
X008114Y005022D01*
X008114Y005181D01*
X008053Y005327D01*
X008033Y005347D01*
X008053Y005368D01*
X008114Y005514D01*
X008114Y005673D01*
X008053Y005819D01*
X008033Y005840D01*
X008053Y005860D01*
X008114Y006006D01*
X008114Y006165D01*
X008053Y006311D01*
X007941Y006423D01*
X007795Y006484D01*
X007240Y006484D01*
X007093Y006423D01*
X007059Y006389D01*
X007021Y006389D01*
X007014Y006407D01*
X006867Y006554D01*
X006716Y006617D01*
X008562Y006613D01*
X008586Y006607D01*
X008617Y006613D01*
X008648Y006613D01*
X008671Y006622D01*
X008696Y006627D01*
X008722Y006643D01*
X008751Y006655D01*
X008769Y006673D01*
X009337Y007034D01*
X009365Y007046D01*
X009383Y007064D01*
X009404Y007077D01*
X009422Y007103D01*
X009444Y007125D01*
X009454Y007148D01*
X009468Y007169D01*
X009475Y007199D01*
X009487Y007228D01*
X009487Y007253D01*
X009492Y007277D01*
X009487Y007308D01*
X009487Y009407D01*
X009487Y009462D01*
X009487Y009463D01*
X009487Y009464D01*
X009467Y009512D01*
X009445Y009565D01*
X009444Y009566D01*
X009444Y009567D01*
X009407Y009604D01*
X009381Y009631D01*
X009586Y009632D01*
X009586Y005599D01*
X009578Y005570D01*
X009586Y005510D01*
X009586Y005450D01*
X009597Y005422D01*
X009750Y004244D01*
X009624Y004118D01*
X009624Y003596D01*
X009993Y003227D01*
X010514Y003227D01*
X010884Y003596D01*
X010884Y004118D01*
X010642Y004359D01*
X010486Y005568D01*
X010486Y009825D01*
X010486Y019129D01*
X010486Y018734D02*
X014496Y018734D01*
X014534Y018551D02*
X014352Y018551D01*
X014223Y018422D01*
X014223Y017933D01*
X014352Y017804D01*
X014376Y017804D01*
X014376Y017784D01*
X014352Y017784D01*
X014223Y017655D01*
X014223Y017473D01*
X014223Y017319D01*
X014285Y017257D01*
X014223Y017194D01*
X014223Y017012D01*
X014247Y016988D01*
X014223Y016964D01*
X014223Y016872D01*
X014223Y016629D01*
X014352Y016500D01*
X014428Y016423D01*
X014611Y016423D01*
X014827Y016423D01*
X014918Y016423D01*
X014919Y016424D01*
X014994Y016500D01*
X015019Y016524D01*
X015123Y016628D01*
X015123Y016629D01*
X015123Y016719D01*
X015123Y016811D01*
X015123Y016964D01*
X015022Y017065D01*
X015030Y017073D01*
X015123Y017166D01*
X015123Y017348D01*
X015061Y017410D01*
X015123Y017473D01*
X015123Y017703D01*
X015123Y017885D01*
X015099Y017909D01*
X015123Y017933D01*
X015123Y018115D01*
X015123Y018422D01*
X014994Y018551D01*
X014812Y018551D01*
X014683Y018422D01*
X014683Y018397D01*
X014663Y018397D01*
X014663Y018422D01*
X014534Y018551D01*
X014589Y018496D02*
X014757Y018496D01*
X015049Y018496D02*
X018495Y018496D01*
X018495Y018734D02*
X015004Y018734D01*
X015123Y018973D02*
X018495Y018973D01*
X018495Y019211D02*
X015123Y019211D01*
X015123Y019391D02*
X015123Y019391D01*
X015123Y019391D01*
X015123Y019450D02*
X018495Y019450D01*
X018495Y019689D02*
X015123Y019689D01*
X015123Y019573D02*
X015123Y019573D01*
X014922Y019927D02*
X018495Y019927D01*
X018495Y020166D02*
X009362Y020166D01*
X009124Y020404D02*
X011012Y020404D01*
X010995Y020411D02*
X011083Y020375D01*
X011174Y020350D01*
X011267Y020338D01*
X011314Y020338D01*
X011314Y021058D01*
X010595Y021058D01*
X010595Y021011D01*
X010607Y020917D01*
X010631Y020826D01*
X010667Y020739D01*
X010715Y020657D01*
X010772Y020582D01*
X010839Y020516D01*
X010914Y020458D01*
X010995Y020411D01*
X010726Y020643D02*
X008885Y020643D01*
X008647Y020881D02*
X010617Y020881D01*
X010595Y021058D02*
X011314Y021058D01*
X011314Y021058D01*
X011315Y021058D01*
X011315Y021058D01*
X012035Y021058D01*
X012035Y021011D01*
X012022Y020917D01*
X011998Y020826D01*
X011962Y020739D01*
X011914Y020657D01*
X011857Y020582D01*
X011790Y020516D01*
X011715Y020458D01*
X011634Y020411D01*
X011546Y020375D01*
X011455Y020350D01*
X011362Y020338D01*
X011315Y020338D01*
X011315Y021058D01*
X012035Y021058D01*
X012035Y021105D01*
X012022Y021199D01*
X011998Y021290D01*
X011962Y021377D01*
X011914Y021459D01*
X011857Y021534D01*
X011790Y021601D01*
X011715Y021658D01*
X011634Y021705D01*
X011546Y021741D01*
X011455Y021766D01*
X011362Y021778D01*
X011315Y021778D01*
X011315Y021059D01*
X011314Y021059D01*
X011314Y021778D01*
X011267Y021778D01*
X011174Y021766D01*
X011083Y021741D01*
X010995Y021705D01*
X010914Y021658D01*
X010839Y021601D01*
X010772Y021534D01*
X010715Y021459D01*
X010667Y021377D01*
X010631Y021290D01*
X010607Y021199D01*
X010595Y021105D01*
X010595Y021058D01*
X010596Y021120D02*
X008606Y021120D01*
X008606Y021358D02*
X010660Y021358D01*
X010835Y021597D02*
X008606Y021597D01*
X008606Y021835D02*
X011475Y021835D01*
X011315Y021597D02*
X011314Y021597D01*
X011314Y021358D02*
X011315Y021358D01*
X011314Y021120D02*
X011315Y021120D01*
X011314Y020881D02*
X011315Y020881D01*
X011314Y020643D02*
X011315Y020643D01*
X011314Y020404D02*
X011315Y020404D01*
X011617Y020404D02*
X018495Y020404D01*
X018240Y020643D02*
X011903Y020643D01*
X012013Y020881D02*
X016935Y020881D01*
X015972Y021597D02*
X018363Y021597D01*
X018418Y021651D02*
X018221Y021455D01*
X018209Y021425D01*
X012640Y021852D01*
X011363Y022665D01*
X010606Y023422D01*
X010606Y023853D01*
X010557Y023971D01*
X010467Y024061D01*
X010065Y024463D01*
X009975Y024553D01*
X009858Y024601D01*
X009542Y024601D01*
X009581Y024694D01*
X009581Y024853D01*
X009520Y024999D01*
X009512Y025008D01*
X009540Y025046D01*
X009570Y025105D01*
X009590Y025168D01*
X009601Y025233D01*
X009601Y025266D01*
X009601Y025299D01*
X009590Y025364D01*
X009570Y025426D01*
X009540Y025485D01*
X009501Y025538D01*
X009455Y025585D01*
X009402Y025624D01*
X009343Y025654D01*
X009280Y025674D01*
X009215Y025684D01*
X008984Y025684D01*
X008984Y025266D01*
X008984Y025266D01*
X009601Y025266D01*
X008984Y025266D01*
X008984Y025266D01*
X008984Y025684D01*
X008752Y025684D01*
X008687Y025674D01*
X008625Y025654D01*
X008566Y025624D01*
X008513Y025585D01*
X008466Y025538D01*
X008428Y025485D01*
X008398Y025426D01*
X008377Y025364D01*
X008367Y025299D01*
X008367Y025266D01*
X008983Y025266D01*
X008983Y025266D01*
X008367Y025266D01*
X008367Y025233D01*
X008377Y025168D01*
X008398Y025105D01*
X008428Y025046D01*
X008456Y025007D01*
X008448Y024999D01*
X008387Y024853D01*
X008387Y024694D01*
X008426Y024601D01*
X007294Y024601D01*
X007246Y024606D01*
X007231Y024601D01*
X007216Y024601D01*
X007227Y024629D01*
X007227Y024787D01*
X007167Y024934D01*
X007055Y025046D01*
X006909Y025106D01*
X006750Y025106D01*
X006604Y025046D01*
X006586Y025028D01*
X006556Y025028D01*
X006678Y025150D01*
X006678Y025364D01*
X006161Y025364D01*
X006161Y025365D01*
X006678Y025365D01*
X006678Y025578D01*
X006561Y025696D01*
X010150Y025696D01*
X010229Y025672D01*
X010465Y025554D01*
X010670Y025387D01*
X010832Y025178D01*
X010944Y024939D01*
X010999Y024681D01*
X010996Y024416D01*
X010982Y024338D01*
X010969Y024314D01*
X010963Y024249D01*
X010948Y024186D01*
X010954Y024147D01*
X010938Y023961D01*
X011024Y023468D01*
X011024Y023468D01*
X011235Y023013D01*
X011556Y022629D01*
X011966Y022341D01*
X012436Y022169D01*
X012606Y022154D01*
X012628Y022144D01*
X012709Y022144D01*
X012789Y022137D01*
X012811Y022144D01*
X019308Y022144D01*
X019411Y022144D01*
X019426Y022144D01*
X019514Y022144D01*
X019514Y022144D01*
X019677Y022144D01*
X020191Y022282D01*
X020192Y022283D01*
X020192Y022279D01*
X020842Y022279D01*
X020842Y022278D01*
X020842Y022278D01*
X020842Y021629D01*
X020573Y021629D01*
X020192Y022009D01*
X020192Y022278D01*
X020842Y022278D01*
X020842Y021629D01*
X021111Y021629D01*
X021492Y022009D01*
X021492Y022278D01*
X020843Y022278D01*
X020843Y022279D01*
X021492Y022279D01*
X021492Y022377D01*
X021629Y022239D01*
X021763Y022184D01*
X021629Y022129D01*
X021482Y021981D01*
X021402Y021788D01*
X021402Y021580D01*
X021482Y021387D01*
X021629Y021239D01*
X021763Y021184D01*
X021629Y021129D01*
X021482Y020981D01*
X021402Y020788D01*
X021402Y020580D01*
X021482Y020387D01*
X021629Y020239D01*
X021763Y020184D01*
X021629Y020129D01*
X021482Y019981D01*
X021402Y019788D01*
X021402Y019580D01*
X021482Y019387D01*
X021629Y019239D01*
X021763Y019184D01*
X021629Y019129D01*
X021482Y018981D01*
X021402Y018788D01*
X021402Y018580D01*
X021482Y018387D01*
X021629Y018239D01*
X021763Y018184D01*
X021629Y018129D01*
X021482Y017981D01*
X021402Y017788D01*
X021402Y017580D01*
X021482Y017387D01*
X021629Y017239D01*
X021763Y017184D01*
X021629Y017129D01*
X021482Y016981D01*
X021472Y016958D01*
X021472Y017134D01*
X021103Y017503D01*
X020581Y017503D01*
X020212Y017134D01*
X020212Y017021D01*
X019331Y016139D01*
X019247Y015937D01*
X019247Y015718D01*
X019247Y015366D01*
X019211Y015401D01*
X019135Y015433D01*
X019135Y020433D01*
X019211Y020465D01*
X019408Y020662D01*
X019515Y020919D01*
X019515Y021197D01*
X019408Y021455D01*
X019211Y021651D01*
X018954Y021758D01*
X018675Y021758D01*
X018418Y021651D01*
X018815Y021058D02*
X018815Y014808D01*
X018201Y015156D02*
X015109Y015156D01*
X015099Y015147D02*
X015123Y015171D01*
X015123Y015195D01*
X015137Y015216D01*
X015123Y015284D01*
X015123Y015353D01*
X015106Y015370D01*
X015101Y015394D01*
X015064Y015419D01*
X015123Y015478D01*
X015123Y015631D01*
X015123Y015813D01*
X015123Y016120D01*
X014994Y016249D01*
X014812Y016249D01*
X014683Y016120D01*
X014683Y016096D01*
X014663Y016096D01*
X014663Y016120D01*
X014534Y016249D01*
X014352Y016249D01*
X014223Y016120D01*
X014223Y015635D01*
X014209Y015615D01*
X014223Y015547D01*
X014223Y015478D01*
X014240Y015460D01*
X014245Y015436D01*
X014282Y015412D01*
X014223Y015353D01*
X014223Y015171D01*
X014247Y015147D01*
X014223Y015123D01*
X014223Y015031D01*
X014223Y014787D01*
X014285Y014725D01*
X014224Y014664D01*
X014223Y014662D01*
X014223Y014572D01*
X014223Y014250D01*
X014223Y013819D01*
X014223Y013329D01*
X014247Y013305D01*
X014223Y013281D01*
X014223Y013189D01*
X014223Y012946D01*
X014247Y012922D01*
X014223Y012898D01*
X014223Y012716D01*
X014285Y012653D01*
X014223Y012591D01*
X014223Y012409D01*
X014223Y011948D01*
X014247Y011924D01*
X014224Y011902D01*
X014223Y011900D01*
X014223Y011810D01*
X014223Y011488D01*
X014352Y011359D01*
X014534Y011359D01*
X014582Y011359D01*
X014764Y011359D01*
X014812Y011359D01*
X014994Y011359D01*
X015123Y011488D01*
X015123Y011718D01*
X015123Y011900D01*
X015099Y011924D01*
X015123Y011948D01*
X015123Y012131D01*
X015123Y012437D01*
X015061Y012500D01*
X015123Y012562D01*
X015123Y012744D01*
X015058Y012810D01*
X015022Y012845D01*
X015123Y012946D01*
X015123Y013036D01*
X015123Y013128D01*
X015123Y013281D01*
X015099Y013305D01*
X015123Y013329D01*
X015123Y013512D01*
X014994Y013640D01*
X014663Y013640D01*
X014663Y013661D01*
X014764Y013661D01*
X014812Y013661D01*
X014994Y013661D01*
X015123Y013790D01*
X015123Y014279D01*
X015123Y014480D01*
X015123Y014662D01*
X015061Y014725D01*
X015123Y014787D01*
X015123Y014787D01*
X015123Y014787D01*
X015123Y014877D01*
X015123Y014969D01*
X015123Y015123D01*
X015099Y015147D01*
X015123Y014969D02*
X015123Y014969D01*
X015123Y014918D02*
X018115Y014918D01*
X018115Y014679D02*
X015106Y014679D01*
X015123Y014441D02*
X018209Y014441D01*
X018449Y014202D02*
X015123Y014202D01*
X015123Y013964D02*
X018230Y013964D01*
X018126Y013725D02*
X015058Y013725D01*
X015123Y013486D02*
X018115Y013486D01*
X018185Y013248D02*
X015123Y013248D01*
X015123Y013128D02*
X015123Y013128D01*
X015123Y013009D02*
X018373Y013009D01*
X018287Y012771D02*
X015097Y012771D01*
X015123Y012946D02*
X015123Y012946D01*
X015123Y012946D01*
X015123Y012562D02*
X015123Y012562D01*
X015093Y012532D02*
X018150Y012532D01*
X018115Y012294D02*
X015123Y012294D01*
X015123Y012055D02*
X018162Y012055D01*
X018316Y011817D02*
X015123Y011817D01*
X015123Y011578D02*
X021403Y011578D01*
X021414Y011817D02*
X019313Y011817D01*
X019467Y012055D02*
X021556Y012055D01*
X021575Y012294D02*
X019515Y012294D01*
X019479Y012532D02*
X021422Y012532D01*
X021402Y012771D02*
X021248Y012771D01*
X021125Y012648D02*
X021428Y012950D01*
X021428Y013164D01*
X020911Y013164D01*
X020911Y012648D01*
X021125Y012648D01*
X020911Y012648D02*
X020911Y013164D01*
X020911Y013164D01*
X020394Y013164D01*
X020394Y012950D01*
X020697Y012648D01*
X020911Y012648D01*
X020911Y012771D02*
X020911Y012771D01*
X020911Y013009D02*
X020911Y013009D01*
X020911Y013164D02*
X020911Y013165D01*
X020911Y013681D01*
X020697Y013681D01*
X020394Y013378D01*
X020394Y013165D01*
X020911Y013165D01*
X020911Y013165D01*
X020911Y013681D01*
X021125Y013681D01*
X021428Y013378D01*
X021428Y013165D01*
X020911Y013165D01*
X020911Y013164D01*
X020911Y013248D02*
X020911Y013248D01*
X020911Y013486D02*
X020911Y013486D01*
X020502Y013486D02*
X019975Y013486D01*
X019737Y013248D02*
X020394Y013248D01*
X020394Y013009D02*
X019382Y013009D01*
X019342Y012771D02*
X020574Y012771D01*
X021428Y013009D02*
X021510Y013009D01*
X021428Y013248D02*
X021621Y013248D01*
X021441Y013486D02*
X021320Y013486D01*
X021402Y013725D02*
X020214Y013725D01*
X020342Y013964D02*
X021474Y013964D01*
X021719Y014202D02*
X020347Y014202D01*
X020347Y014441D02*
X021460Y014441D01*
X021402Y014679D02*
X020347Y014679D01*
X020347Y014918D02*
X021456Y014918D01*
X021695Y015156D02*
X020347Y015156D01*
X020347Y015395D02*
X021479Y015395D01*
X021402Y015633D02*
X020380Y015633D01*
X020619Y015872D02*
X021437Y015872D01*
X021611Y016110D02*
X020857Y016110D01*
X021209Y016349D02*
X021520Y016349D01*
X021472Y017065D02*
X021565Y017065D01*
X021566Y017303D02*
X021303Y017303D01*
X021418Y017542D02*
X019135Y017542D01*
X019135Y017780D02*
X021402Y017780D01*
X021519Y018019D02*
X019135Y018019D01*
X019135Y018257D02*
X021611Y018257D01*
X021437Y018496D02*
X019135Y018496D01*
X019135Y018734D02*
X021402Y018734D01*
X021478Y018973D02*
X019135Y018973D01*
X019135Y019211D02*
X021696Y019211D01*
X021456Y019450D02*
X019135Y019450D01*
X019135Y019689D02*
X021402Y019689D01*
X021459Y019927D02*
X019135Y019927D01*
X019135Y020166D02*
X021718Y020166D01*
X021475Y020404D02*
X019135Y020404D01*
X019389Y020643D02*
X021402Y020643D01*
X021440Y020881D02*
X019499Y020881D01*
X019515Y021120D02*
X021620Y021120D01*
X021510Y021358D02*
X019448Y021358D01*
X019266Y021597D02*
X021402Y021597D01*
X021421Y021835D02*
X021318Y021835D01*
X021492Y022074D02*
X021574Y022074D01*
X021556Y022313D02*
X021492Y022313D01*
X020842Y022074D02*
X020842Y022074D01*
X020842Y021835D02*
X020842Y021835D01*
X020366Y021835D02*
X012861Y021835D01*
X012536Y021539D02*
X018815Y021058D01*
X019677Y022144D02*
X019677Y022144D01*
X020192Y022074D02*
X012292Y022074D01*
X012044Y022313D02*
X011917Y022313D01*
X011966Y022341D02*
X011966Y022341D01*
X011667Y022551D02*
X011542Y022551D01*
X011556Y022629D02*
X011556Y022629D01*
X011422Y022790D02*
X011238Y022790D01*
X011235Y023013D02*
X011235Y023013D01*
X011228Y023028D02*
X011000Y023028D01*
X011117Y023267D02*
X010761Y023267D01*
X010606Y023505D02*
X011017Y023505D01*
X010976Y023744D02*
X010606Y023744D01*
X010546Y023982D02*
X010940Y023982D01*
X010938Y023961D02*
X010938Y023961D01*
X010957Y024221D02*
X010307Y024221D01*
X010467Y024061D02*
X010467Y024061D01*
X010286Y023789D02*
X010286Y023289D01*
X011161Y022414D01*
X012536Y021539D01*
X012225Y021358D02*
X011969Y021358D01*
X012033Y021120D02*
X013823Y021120D01*
X014347Y019927D02*
X009601Y019927D01*
X009839Y019689D02*
X014223Y019689D01*
X014223Y019450D02*
X010221Y019450D01*
X009586Y019037D02*
X009586Y010192D01*
X009045Y010189D01*
X009070Y010238D01*
X009090Y010301D01*
X009101Y010366D01*
X009101Y010398D01*
X008484Y010398D01*
X008484Y010399D01*
X008484Y010399D01*
X008484Y010817D01*
X008484Y010890D01*
X008484Y010890D01*
X008484Y010817D01*
X008484Y010399D01*
X009101Y010399D01*
X009101Y010432D01*
X009090Y010497D01*
X009070Y010559D01*
X009040Y010618D01*
X009021Y010645D01*
X009040Y010671D01*
X009070Y010730D01*
X009090Y010793D01*
X009101Y010858D01*
X009101Y010891D01*
X009101Y010924D01*
X009090Y010989D01*
X009070Y011051D01*
X009040Y011110D01*
X009001Y011163D01*
X008955Y011210D01*
X008902Y011249D01*
X008843Y011279D01*
X008780Y011299D01*
X008715Y011309D01*
X008484Y011309D01*
X008484Y010891D01*
X008484Y010891D01*
X009101Y010891D01*
X008484Y010891D01*
X008484Y010891D01*
X008484Y011309D01*
X008252Y011309D01*
X008187Y011299D01*
X008125Y011279D01*
X008066Y011249D01*
X008013Y011210D01*
X007966Y011163D01*
X007928Y011110D01*
X007898Y011051D01*
X007877Y010989D01*
X007867Y010924D01*
X007867Y010891D01*
X008483Y010891D01*
X008483Y010891D01*
X007867Y010891D01*
X007867Y010858D01*
X007877Y010793D01*
X007898Y010730D01*
X007928Y010671D01*
X007947Y010645D01*
X007928Y010618D01*
X007898Y010559D01*
X007877Y010497D01*
X007867Y010432D01*
X007867Y010399D01*
X008483Y010399D01*
X008483Y010398D01*
X007867Y010398D01*
X007867Y010366D01*
X007877Y010301D01*
X007898Y010238D01*
X007928Y010179D01*
X007937Y010166D01*
X006531Y010166D01*
X006540Y010179D01*
X006570Y010238D01*
X006590Y010301D01*
X006601Y010366D01*
X006601Y010398D01*
X005984Y010398D01*
X005984Y010399D01*
X005984Y010399D01*
X005984Y010817D01*
X005984Y010890D01*
X005984Y010890D01*
X005984Y010817D01*
X005984Y010399D01*
X006601Y010399D01*
X006601Y010432D01*
X006590Y010497D01*
X006570Y010559D01*
X006540Y010618D01*
X006521Y010645D01*
X006540Y010671D01*
X006570Y010730D01*
X006590Y010793D01*
X006601Y010858D01*
X006601Y010891D01*
X006601Y010924D01*
X006590Y010989D01*
X006570Y011051D01*
X006540Y011110D01*
X006501Y011163D01*
X006455Y011210D01*
X006402Y011249D01*
X006343Y011279D01*
X006280Y011299D01*
X006215Y011309D01*
X005984Y011309D01*
X005984Y010891D01*
X005984Y010891D01*
X006601Y010891D01*
X005984Y010891D01*
X005984Y010891D01*
X005984Y011309D01*
X005752Y011309D01*
X005687Y011299D01*
X005625Y011279D01*
X005566Y011249D01*
X005513Y011210D01*
X005466Y011163D01*
X005428Y011110D01*
X005398Y011051D01*
X005377Y010989D01*
X005367Y010924D01*
X005367Y010891D01*
X005983Y010891D01*
X005983Y010891D01*
X005367Y010891D01*
X005367Y010858D01*
X005377Y010793D01*
X005398Y010730D01*
X005428Y010671D01*
X005447Y010645D01*
X005428Y010618D01*
X005405Y010574D01*
X005394Y010584D01*
X005209Y010769D01*
X005209Y010879D01*
X005149Y011025D01*
X005036Y011137D01*
X004890Y011198D01*
X004732Y011198D01*
X004586Y011137D01*
X004474Y011025D01*
X004413Y010880D01*
X004372Y010981D01*
X004224Y011129D01*
X004091Y011184D01*
X004224Y011239D01*
X004372Y011387D01*
X004452Y011580D01*
X004452Y011788D01*
X004372Y011981D01*
X004224Y012129D01*
X004091Y012184D01*
X004224Y012239D01*
X004372Y012387D01*
X004452Y012580D01*
X004452Y012788D01*
X004372Y012981D01*
X004224Y013129D01*
X004091Y013184D01*
X004224Y013239D01*
X004372Y013387D01*
X004452Y013580D01*
X004452Y013788D01*
X004372Y013981D01*
X004224Y014129D01*
X004091Y014184D01*
X004224Y014239D01*
X004372Y014387D01*
X004452Y014580D01*
X004452Y014788D01*
X004372Y014981D01*
X004224Y015129D01*
X004091Y015184D01*
X004224Y015239D01*
X004372Y015387D01*
X004452Y015580D01*
X004452Y015788D01*
X004372Y015981D01*
X004224Y016129D01*
X004091Y016184D01*
X004224Y016239D01*
X004372Y016387D01*
X004452Y016580D01*
X004452Y016788D01*
X004372Y016981D01*
X004224Y017129D01*
X004091Y017184D01*
X004224Y017239D01*
X004372Y017387D01*
X004452Y017580D01*
X004452Y017788D01*
X004372Y017981D01*
X004224Y018129D01*
X004091Y018184D01*
X004224Y018239D01*
X004372Y018387D01*
X004452Y018580D01*
X004452Y018788D01*
X004372Y018981D01*
X004224Y019129D01*
X004091Y019184D01*
X004224Y019239D01*
X004372Y019387D01*
X004452Y019580D01*
X004452Y019788D01*
X004372Y019981D01*
X004224Y020129D01*
X004091Y020184D01*
X004166Y020215D01*
X004185Y020171D01*
X004297Y020059D01*
X004443Y019998D01*
X004569Y019998D01*
X005119Y019489D01*
X005152Y019456D01*
X005157Y019454D01*
X005160Y019450D01*
X005204Y019434D01*
X005221Y019427D01*
X005310Y019338D01*
X005456Y019278D01*
X006012Y019278D01*
X006158Y019338D01*
X006270Y019451D01*
X006331Y019597D01*
X006331Y019755D01*
X006270Y019902D01*
X006254Y019918D01*
X006964Y019918D01*
X006948Y019902D01*
X006887Y019755D01*
X006887Y019597D01*
X006948Y019451D01*
X007060Y019338D01*
X007206Y019278D01*
X007762Y019278D01*
X007908Y019338D01*
X008020Y019451D01*
X008081Y019597D01*
X008081Y019755D01*
X008020Y019902D01*
X008000Y019922D01*
X008020Y019943D01*
X008081Y020089D01*
X008081Y020248D01*
X008020Y020394D01*
X008000Y020414D01*
X008020Y020435D01*
X008069Y020554D01*
X008821Y019802D01*
X008706Y019687D01*
X008582Y019687D01*
X008436Y019627D01*
X008324Y019515D01*
X008263Y019369D01*
X008263Y019210D01*
X008324Y019064D01*
X008436Y018952D01*
X008582Y018891D01*
X008740Y018891D01*
X008886Y018952D01*
X008999Y019064D01*
X009059Y019210D01*
X009059Y019334D01*
X009174Y019449D01*
X009586Y019037D01*
X009586Y018973D02*
X008908Y018973D01*
X009059Y019211D02*
X009411Y019211D01*
X009586Y018734D02*
X004452Y018734D01*
X004417Y018496D02*
X005296Y018496D01*
X005316Y018510D02*
X005263Y018472D01*
X005216Y018425D01*
X005178Y018372D01*
X005148Y018313D01*
X005127Y018251D01*
X005117Y018186D01*
X005117Y018153D01*
X005733Y018153D01*
X005733Y018152D01*
X005117Y018152D01*
X005117Y018120D01*
X005127Y018055D01*
X005148Y017992D01*
X005178Y017933D01*
X005206Y017894D01*
X005198Y017886D01*
X005137Y017740D01*
X005137Y017581D01*
X005198Y017435D01*
X005218Y017414D01*
X005198Y017394D01*
X005137Y017248D01*
X005137Y017089D01*
X005198Y016943D01*
X005218Y016922D01*
X005198Y016902D01*
X005137Y016755D01*
X005137Y016597D01*
X005198Y016451D01*
X005310Y016338D01*
X005456Y016278D01*
X006012Y016278D01*
X006158Y016338D01*
X006270Y016451D01*
X006331Y016597D01*
X006331Y016755D01*
X006270Y016902D01*
X006254Y016918D01*
X006623Y016918D01*
X006711Y016831D01*
X006857Y016770D01*
X007015Y016770D01*
X007162Y016831D01*
X007274Y016943D01*
X007334Y017089D01*
X007334Y017248D01*
X007274Y017394D01*
X007162Y017506D01*
X007015Y017566D01*
X006857Y017566D01*
X006711Y017506D01*
X006623Y017418D01*
X006254Y017418D01*
X006270Y017435D01*
X006331Y017581D01*
X006331Y017740D01*
X006270Y017886D01*
X006262Y017894D01*
X006290Y017933D01*
X006320Y017992D01*
X006340Y018055D01*
X006351Y018120D01*
X006351Y018152D01*
X005734Y018152D01*
X005734Y018153D01*
X005734Y018153D01*
X005734Y018571D01*
X005965Y018571D01*
X006030Y018561D01*
X006093Y018540D01*
X006152Y018510D01*
X006205Y018472D01*
X006251Y018425D01*
X006290Y018372D01*
X006320Y018313D01*
X006340Y018251D01*
X006351Y018186D01*
X006351Y018153D01*
X005734Y018153D01*
X005734Y018571D01*
X005502Y018571D01*
X005437Y018561D01*
X005375Y018540D01*
X005316Y018510D01*
X005130Y018257D02*
X004242Y018257D01*
X004334Y018019D02*
X005139Y018019D01*
X005154Y017780D02*
X004452Y017780D01*
X004436Y017542D02*
X005153Y017542D01*
X005160Y017303D02*
X004288Y017303D01*
X004288Y017065D02*
X005147Y017065D01*
X005166Y016826D02*
X004436Y016826D01*
X004452Y016587D02*
X005141Y016587D01*
X005299Y016349D02*
X004334Y016349D01*
X004243Y016110D02*
X009586Y016110D01*
X009586Y015872D02*
X004417Y015872D01*
X004452Y015633D02*
X009586Y015633D01*
X009586Y015395D02*
X004375Y015395D01*
X004158Y015156D02*
X009586Y015156D01*
X009586Y014918D02*
X004398Y014918D01*
X004452Y014679D02*
X009586Y014679D01*
X009586Y014441D02*
X004394Y014441D01*
X004134Y014202D02*
X009586Y014202D01*
X009586Y013964D02*
X004379Y013964D01*
X004452Y013725D02*
X009586Y013725D01*
X009586Y013486D02*
X004413Y013486D01*
X004233Y013248D02*
X009586Y013248D01*
X009586Y013009D02*
X004344Y013009D01*
X004452Y012771D02*
X009586Y012771D01*
X009586Y012532D02*
X004432Y012532D01*
X004279Y012294D02*
X009586Y012294D01*
X009586Y012055D02*
X004298Y012055D01*
X004440Y011817D02*
X009586Y011817D01*
X009586Y011578D02*
X004451Y011578D01*
X004324Y011340D02*
X009586Y011340D01*
X009586Y011101D02*
X009045Y011101D01*
X009101Y010862D02*
X009586Y010862D01*
X009586Y010624D02*
X009036Y010624D01*
X009101Y010385D02*
X009586Y010385D01*
X010486Y010385D02*
X014242Y010385D01*
X014240Y010396D02*
X014245Y010372D01*
X014282Y010348D01*
X014223Y010289D01*
X014223Y010107D01*
X014223Y010059D01*
X014223Y009877D01*
X014223Y009800D01*
X014223Y009647D01*
X014285Y009584D01*
X014223Y009522D01*
X014223Y009340D01*
X014223Y009186D01*
X014285Y009124D01*
X014223Y009062D01*
X014223Y008879D01*
X014247Y008855D01*
X014223Y008831D01*
X014223Y008739D01*
X014223Y008496D01*
X014247Y008472D01*
X014223Y008448D01*
X014223Y008371D01*
X014223Y008189D01*
X014223Y008112D01*
X014223Y007959D01*
X014285Y007896D01*
X014223Y007834D01*
X014223Y007652D01*
X014352Y007523D01*
X012002Y007523D01*
X011998Y007540D02*
X011962Y007627D01*
X011914Y007709D01*
X011857Y007784D01*
X011790Y007851D01*
X011715Y007908D01*
X011634Y007955D01*
X011546Y007991D01*
X011455Y008016D01*
X011362Y008028D01*
X011315Y008028D01*
X011315Y007309D01*
X011314Y007309D01*
X011314Y008028D01*
X011267Y008028D01*
X011174Y008016D01*
X011083Y007991D01*
X010995Y007955D01*
X010914Y007908D01*
X010839Y007851D01*
X010772Y007784D01*
X010715Y007709D01*
X010667Y007627D01*
X010631Y007540D01*
X010607Y007449D01*
X010595Y007355D01*
X010595Y007308D01*
X010595Y007261D01*
X010607Y007167D01*
X010631Y007076D01*
X010667Y006989D01*
X010715Y006907D01*
X010772Y006832D01*
X010839Y006766D01*
X010914Y006708D01*
X010995Y006661D01*
X011083Y006625D01*
X011174Y006600D01*
X011267Y006588D01*
X011314Y006588D01*
X011314Y007308D01*
X010595Y007308D01*
X011314Y007308D01*
X011314Y007308D01*
X011315Y007308D01*
X011315Y007308D01*
X012035Y007308D01*
X012035Y007261D01*
X012022Y007167D01*
X011998Y007076D01*
X011962Y006989D01*
X011914Y006907D01*
X011857Y006832D01*
X011790Y006766D01*
X011715Y006708D01*
X011634Y006661D01*
X011546Y006625D01*
X011455Y006600D01*
X011362Y006588D01*
X011315Y006588D01*
X011315Y007308D01*
X012035Y007308D01*
X012035Y007355D01*
X012022Y007449D01*
X011998Y007540D01*
X011874Y007761D02*
X014223Y007761D01*
X014223Y008000D02*
X011514Y008000D01*
X011315Y008000D02*
X011314Y008000D01*
X011115Y008000D02*
X010486Y008000D01*
X010486Y008238D02*
X014223Y008238D01*
X014241Y008477D02*
X010486Y008477D01*
X010486Y008716D02*
X014223Y008716D01*
X014223Y008954D02*
X010486Y008954D01*
X010486Y009193D02*
X014223Y009193D01*
X014223Y009431D02*
X010486Y009431D01*
X010486Y009670D02*
X014223Y009670D01*
X014223Y009908D02*
X010486Y009908D01*
X010486Y010147D02*
X014223Y010147D01*
X014240Y010396D02*
X014223Y010414D01*
X014223Y010483D01*
X014209Y010551D01*
X014223Y010571D01*
X014223Y010749D01*
X014223Y010888D01*
X014223Y010980D01*
X014300Y011056D01*
X014300Y011056D01*
X014327Y011084D01*
X014428Y011185D01*
X014428Y011185D01*
X014428Y011185D01*
X014520Y011185D01*
X014611Y011185D01*
X014611Y011185D01*
X014735Y011185D01*
X014918Y011185D01*
X014994Y011109D01*
X015123Y010980D01*
X015123Y010749D01*
X015123Y010567D01*
X015123Y010414D01*
X015064Y010355D01*
X015101Y010331D01*
X015106Y010306D01*
X015123Y010289D01*
X015123Y010220D01*
X015137Y010152D01*
X015123Y010131D01*
X015123Y010107D01*
X015123Y009800D01*
X015123Y009647D01*
X015061Y009584D01*
X015123Y009522D01*
X015123Y009340D01*
X015123Y009186D01*
X015061Y009124D01*
X015123Y009062D01*
X015123Y008879D01*
X015099Y008855D01*
X015123Y008831D01*
X015123Y008678D01*
X015123Y008678D01*
X015123Y008586D01*
X015123Y008496D01*
X015123Y008496D01*
X015123Y008496D01*
X015099Y008472D01*
X015123Y008448D01*
X015123Y008112D01*
X015123Y007959D01*
X015061Y007896D01*
X015123Y007834D01*
X015123Y007652D01*
X014994Y007523D01*
X018146Y007523D01*
X018115Y007447D02*
X018115Y007169D01*
X018221Y006912D01*
X018335Y006798D01*
X018335Y005474D01*
X018220Y005359D01*
X016435Y005359D01*
X016215Y005579D01*
X015635Y005579D01*
X015415Y005359D01*
X014781Y005359D01*
X014561Y005579D01*
X013981Y005579D01*
X013571Y005169D01*
X013571Y004589D01*
X013981Y004179D01*
X014561Y004179D01*
X014781Y004399D01*
X015415Y004399D01*
X015635Y004179D01*
X016215Y004179D01*
X016435Y004399D01*
X018165Y004399D01*
X018412Y004151D01*
X018992Y004151D01*
X019212Y004371D01*
X019846Y004371D01*
X020066Y004151D01*
X020646Y004151D01*
X021056Y004561D01*
X021056Y005141D01*
X020646Y005551D01*
X020066Y005551D01*
X019846Y005331D01*
X019295Y005331D01*
X019295Y006798D01*
X019408Y006912D01*
X019515Y007169D01*
X019515Y007287D01*
X020806Y008579D01*
X021061Y008579D01*
X021430Y008948D01*
X021430Y009469D01*
X021061Y009838D01*
X020539Y009838D01*
X020170Y009469D01*
X020170Y009215D01*
X018960Y008005D01*
X018954Y008008D01*
X018675Y008008D01*
X018418Y007901D01*
X018221Y007705D01*
X018115Y007447D01*
X018115Y007284D02*
X012035Y007284D01*
X011985Y007046D02*
X018166Y007046D01*
X018326Y006807D02*
X011832Y006807D01*
X011315Y006807D02*
X011314Y006807D01*
X011314Y007046D02*
X011315Y007046D01*
X011314Y007284D02*
X011315Y007284D01*
X011314Y007523D02*
X011315Y007523D01*
X011314Y007761D02*
X011315Y007761D01*
X010755Y007761D02*
X010486Y007761D01*
X010486Y007523D02*
X010627Y007523D01*
X010595Y007284D02*
X010486Y007284D01*
X010486Y007046D02*
X010644Y007046D01*
X010797Y006807D02*
X010486Y006807D01*
X010486Y006569D02*
X018335Y006569D01*
X018335Y006330D02*
X010486Y006330D01*
X010486Y006092D02*
X018335Y006092D01*
X018335Y005853D02*
X010486Y005853D01*
X010486Y005614D02*
X018335Y005614D01*
X018237Y005376D02*
X016418Y005376D01*
X015432Y005376D02*
X014764Y005376D01*
X013778Y005376D02*
X010511Y005376D01*
X010542Y005137D02*
X013571Y005137D01*
X013571Y004899D02*
X010573Y004899D01*
X010603Y004660D02*
X013571Y004660D01*
X013739Y004422D02*
X012577Y004422D01*
X012491Y004507D02*
X012872Y004127D01*
X012872Y003857D01*
X012222Y003857D01*
X012222Y003207D01*
X012491Y003207D01*
X012872Y003588D01*
X012872Y003857D01*
X012222Y003857D01*
X012222Y003857D01*
X012222Y003207D01*
X011953Y003207D01*
X011572Y003588D01*
X011572Y003857D01*
X012222Y003857D01*
X012222Y003857D01*
X012222Y003857D01*
X011572Y003857D01*
X011572Y004127D01*
X011953Y004507D01*
X012222Y004507D01*
X012491Y004507D01*
X012222Y004507D02*
X012222Y003858D01*
X012222Y004507D01*
X012222Y004422D02*
X012222Y004422D01*
X012222Y004183D02*
X012222Y004183D01*
X012222Y003945D02*
X012222Y003945D01*
X012222Y003858D02*
X012222Y003858D01*
X012222Y003706D02*
X012222Y003706D01*
X012222Y003468D02*
X012222Y003468D01*
X012222Y003229D02*
X012222Y003229D01*
X011931Y003229D02*
X010516Y003229D01*
X010755Y003468D02*
X011693Y003468D01*
X011572Y003706D02*
X010884Y003706D01*
X010884Y003945D02*
X011572Y003945D01*
X011629Y004183D02*
X010819Y004183D01*
X010634Y004422D02*
X011867Y004422D01*
X012752Y003468D02*
X013928Y003468D01*
X014244Y003468D02*
X014299Y003468D01*
X014299Y003229D02*
X014244Y003229D01*
X014244Y002991D02*
X014299Y002991D01*
X014614Y003468D02*
X015582Y003468D01*
X015627Y003512D02*
X015205Y003091D01*
X015205Y002820D01*
X015897Y002820D01*
X015897Y003512D01*
X015627Y003512D01*
X015897Y003468D02*
X015952Y003468D01*
X015952Y003229D02*
X015897Y003229D01*
X015897Y002991D02*
X015952Y002991D01*
X016268Y003468D02*
X018387Y003468D01*
X018148Y003229D02*
X016506Y003229D01*
X016645Y002991D02*
X017982Y002991D01*
X017982Y002513D02*
X016645Y002513D01*
X016645Y002752D02*
X018674Y002752D01*
X018730Y002752D02*
X020328Y002752D01*
X020384Y002752D02*
X021402Y002752D01*
X021429Y002513D02*
X021076Y002513D01*
X020884Y002275D02*
X021594Y002275D01*
X021491Y002991D02*
X021076Y002991D01*
X020910Y003229D02*
X021654Y003229D01*
X021448Y003468D02*
X020671Y003468D01*
X020384Y003468D02*
X020328Y003468D01*
X020328Y003229D02*
X020384Y003229D01*
X020384Y002991D02*
X020328Y002991D01*
X020041Y003468D02*
X019018Y003468D01*
X018730Y003468D02*
X018675Y003468D01*
X018675Y003229D02*
X018730Y003229D01*
X018730Y002991D02*
X018675Y002991D01*
X019256Y003229D02*
X019802Y003229D01*
X019636Y002991D02*
X019422Y002991D01*
X019422Y002513D02*
X019636Y002513D01*
X019828Y002275D02*
X019231Y002275D01*
X018174Y002275D02*
X016425Y002275D01*
X015424Y002275D02*
X014772Y002275D01*
X014991Y002513D02*
X015205Y002513D01*
X015205Y002752D02*
X014991Y002752D01*
X014991Y002991D02*
X015205Y002991D01*
X015343Y003229D02*
X014853Y003229D01*
X014565Y004183D02*
X015631Y004183D01*
X016219Y004183D02*
X018381Y004183D01*
X019024Y004183D02*
X020034Y004183D01*
X020678Y004183D02*
X021760Y004183D01*
X021467Y004422D02*
X020916Y004422D01*
X021056Y004660D02*
X021402Y004660D01*
X021448Y004899D02*
X021056Y004899D01*
X021056Y005137D02*
X021650Y005137D01*
X021493Y005376D02*
X020821Y005376D01*
X021402Y005614D02*
X019295Y005614D01*
X019295Y005376D02*
X019891Y005376D01*
X019295Y005853D02*
X021429Y005853D01*
X021592Y006092D02*
X019295Y006092D01*
X019295Y006330D02*
X021539Y006330D01*
X021406Y006569D02*
X021079Y006569D01*
X020800Y006569D02*
X020799Y006569D01*
X020799Y006807D02*
X020800Y006807D01*
X020799Y007046D02*
X020800Y007046D01*
X020799Y007209D02*
X020150Y007209D01*
X020150Y007478D01*
X020530Y007858D01*
X020799Y007858D01*
X020799Y007209D01*
X020799Y007284D02*
X020800Y007284D01*
X020799Y007523D02*
X020800Y007523D01*
X020799Y007761D02*
X020800Y007761D01*
X021166Y007761D02*
X021402Y007761D01*
X021404Y007523D02*
X021426Y007523D01*
X021450Y007284D02*
X021584Y007284D01*
X021546Y007046D02*
X021450Y007046D01*
X021410Y006807D02*
X021318Y006807D01*
X020520Y006569D02*
X019295Y006569D01*
X019304Y006807D02*
X020282Y006807D01*
X020150Y007046D02*
X019464Y007046D01*
X019515Y007284D02*
X020150Y007284D01*
X020195Y007523D02*
X019750Y007523D01*
X019989Y007761D02*
X020433Y007761D01*
X020227Y008000D02*
X021500Y008000D01*
X021631Y008238D02*
X020466Y008238D01*
X020704Y008477D02*
X021444Y008477D01*
X021402Y008716D02*
X021198Y008716D01*
X021430Y008954D02*
X021471Y008954D01*
X021430Y009193D02*
X021742Y009193D01*
X021463Y009431D02*
X021430Y009431D01*
X021402Y009670D02*
X021229Y009670D01*
X021452Y009908D02*
X015123Y009908D01*
X015123Y009670D02*
X020370Y009670D01*
X020170Y009431D02*
X015123Y009431D01*
X015123Y009193D02*
X020147Y009193D01*
X019909Y008954D02*
X015123Y008954D01*
X015123Y008716D02*
X019670Y008716D01*
X019432Y008477D02*
X015105Y008477D01*
X015123Y008238D02*
X019193Y008238D01*
X018656Y008000D02*
X015123Y008000D01*
X015123Y007761D02*
X018278Y007761D01*
X015133Y010147D02*
X021673Y010147D01*
X021483Y010385D02*
X015095Y010385D01*
X015123Y010624D02*
X021402Y010624D01*
X021433Y010862D02*
X015123Y010862D01*
X015002Y011101D02*
X021601Y011101D01*
X021529Y011340D02*
X010486Y011340D01*
X010486Y011578D02*
X014223Y011578D01*
X014223Y011817D02*
X010486Y011817D01*
X010486Y012055D02*
X014223Y012055D01*
X014223Y011900D02*
X014223Y011900D01*
X014223Y012294D02*
X010486Y012294D01*
X010486Y012532D02*
X014223Y012532D01*
X014223Y012771D02*
X010486Y012771D01*
X010486Y013009D02*
X014223Y013009D01*
X014223Y013248D02*
X010486Y013248D01*
X010486Y013486D02*
X014223Y013486D01*
X014223Y013725D02*
X010486Y013725D01*
X010486Y013964D02*
X014223Y013964D01*
X014223Y014202D02*
X010486Y014202D01*
X010486Y014441D02*
X014223Y014441D01*
X014223Y014662D02*
X014223Y014662D01*
X014239Y014679D02*
X010486Y014679D01*
X010486Y014918D02*
X014223Y014918D01*
X014237Y015156D02*
X010486Y015156D01*
X010486Y015395D02*
X014265Y015395D01*
X014221Y015633D02*
X010486Y015633D01*
X010486Y015872D02*
X014223Y015872D01*
X014223Y016110D02*
X010486Y016110D01*
X010486Y016349D02*
X018495Y016349D01*
X018495Y016587D02*
X015082Y016587D01*
X015123Y016629D02*
X015123Y016629D01*
X015123Y016811D02*
X015123Y016811D01*
X015123Y016826D02*
X018495Y016826D01*
X018495Y017065D02*
X015023Y017065D01*
X015123Y017166D02*
X015123Y017166D01*
X015123Y017303D02*
X018495Y017303D01*
X018495Y017542D02*
X015123Y017542D01*
X015123Y017780D02*
X018495Y017780D01*
X018495Y018019D02*
X015123Y018019D01*
X015123Y018257D02*
X018495Y018257D01*
X019135Y017303D02*
X020381Y017303D01*
X020212Y017065D02*
X019135Y017065D01*
X019135Y016826D02*
X020017Y016826D01*
X019779Y016587D02*
X019135Y016587D01*
X019135Y016349D02*
X019540Y016349D01*
X019319Y016110D02*
X019135Y016110D01*
X019135Y015872D02*
X019247Y015872D01*
X019247Y015633D02*
X019135Y015633D01*
X019218Y015395D02*
X019247Y015395D01*
X018495Y015633D02*
X015123Y015633D01*
X015123Y015872D02*
X018495Y015872D01*
X018495Y016110D02*
X015123Y016110D01*
X014918Y016423D02*
X014918Y016423D01*
X014994Y016500D02*
X014994Y016500D01*
X014683Y016110D02*
X014663Y016110D01*
X014264Y016587D02*
X010486Y016587D01*
X010486Y016826D02*
X014223Y016826D01*
X014223Y017065D02*
X010486Y017065D01*
X010486Y017303D02*
X014239Y017303D01*
X014223Y017542D02*
X010486Y017542D01*
X010486Y017780D02*
X014348Y017780D01*
X014223Y018019D02*
X010486Y018019D01*
X010486Y018257D02*
X014223Y018257D01*
X014297Y018496D02*
X010486Y018496D01*
X009586Y018496D02*
X006172Y018496D01*
X006338Y018257D02*
X009586Y018257D01*
X009586Y018019D02*
X006329Y018019D01*
X006314Y017780D02*
X009586Y017780D01*
X009586Y017542D02*
X007075Y017542D01*
X006797Y017542D02*
X006314Y017542D01*
X006301Y016826D02*
X006722Y016826D01*
X007150Y016826D02*
X009586Y016826D01*
X009586Y016587D02*
X006327Y016587D01*
X006168Y016349D02*
X009586Y016349D01*
X009586Y017065D02*
X007324Y017065D01*
X007311Y017303D02*
X009586Y017303D01*
X008414Y018973D02*
X004375Y018973D01*
X004157Y019211D02*
X008263Y019211D01*
X008297Y019450D02*
X008019Y019450D01*
X008081Y019689D02*
X008707Y019689D01*
X008696Y019927D02*
X008004Y019927D01*
X008081Y020166D02*
X008457Y020166D01*
X008219Y020404D02*
X008010Y020404D01*
X007484Y021358D02*
X007484Y021358D01*
X007966Y021597D02*
X004951Y021597D01*
X005064Y021358D02*
X005171Y021358D01*
X005734Y021358D02*
X005734Y021358D01*
X005955Y021868D02*
X005778Y022044D01*
X005454Y022044D01*
X005436Y022027D01*
X005290Y021966D01*
X005132Y021966D01*
X004986Y022027D01*
X004874Y022139D01*
X004813Y022285D01*
X004813Y022444D01*
X004874Y022590D01*
X004986Y022702D01*
X005132Y022762D01*
X005290Y022762D01*
X005436Y022702D01*
X005454Y022684D01*
X005778Y022684D01*
X005955Y022861D01*
X006367Y022861D01*
X006658Y022570D01*
X006658Y022159D01*
X006367Y021868D01*
X005955Y021868D01*
X006161Y022364D02*
X005211Y022364D01*
X004938Y022074D02*
X004629Y022074D01*
X004491Y022313D02*
X004813Y022313D01*
X004857Y022551D02*
X004440Y022551D01*
X004451Y022790D02*
X004843Y022790D01*
X005019Y022790D02*
X005884Y022790D01*
X006438Y022790D02*
X007458Y022790D01*
X007697Y022551D02*
X006658Y022551D01*
X006658Y022313D02*
X007935Y022313D01*
X007966Y022074D02*
X006573Y022074D01*
X006297Y021358D02*
X006921Y021358D01*
X006867Y021120D02*
X006877Y021055D01*
X006898Y020992D01*
X006928Y020933D01*
X006956Y020894D01*
X006948Y020886D01*
X006887Y020740D01*
X006887Y020581D01*
X006948Y020435D01*
X006964Y020418D01*
X006254Y020418D01*
X006270Y020435D01*
X006331Y020581D01*
X006331Y020740D01*
X006270Y020886D01*
X006262Y020894D01*
X006290Y020933D01*
X006320Y020992D01*
X006340Y021055D01*
X006351Y021120D01*
X006272Y020881D02*
X006946Y020881D01*
X006887Y020643D02*
X006331Y020643D01*
X006331Y019689D02*
X006887Y019689D01*
X006948Y019450D02*
X006269Y019450D01*
X005734Y018496D02*
X005734Y018496D01*
X005734Y018257D02*
X005734Y018257D01*
X005161Y019450D02*
X004398Y019450D01*
X004452Y019689D02*
X004903Y019689D01*
X004646Y019927D02*
X004394Y019927D01*
X004190Y020166D02*
X004136Y020166D01*
X004790Y021835D02*
X007966Y021835D01*
X009507Y022074D02*
X011100Y022074D01*
X010810Y022313D02*
X009581Y022313D01*
X009508Y022551D02*
X010572Y022551D01*
X010333Y022790D02*
X009581Y022790D01*
X009521Y023028D02*
X010095Y023028D01*
X009966Y023267D02*
X009581Y023267D01*
X009527Y023505D02*
X009966Y023505D01*
X009879Y023744D02*
X009581Y023744D01*
X009794Y024282D02*
X008984Y024282D01*
X007278Y024282D01*
X006161Y023364D01*
X006161Y024364D02*
X006505Y024708D01*
X006829Y024708D01*
X006678Y025175D02*
X008376Y025175D01*
X008394Y025414D02*
X006678Y025414D01*
X006604Y025652D02*
X008622Y025652D01*
X008984Y025652D02*
X008984Y025652D01*
X008984Y025414D02*
X008984Y025414D01*
X009346Y025652D02*
X010269Y025652D01*
X010637Y025414D02*
X009574Y025414D01*
X009591Y025175D02*
X010834Y025175D01*
X010944Y024936D02*
X009546Y024936D01*
X009581Y024698D02*
X010996Y024698D01*
X010997Y024459D02*
X010069Y024459D01*
X010065Y024463D02*
X010065Y024463D01*
X009794Y024282D02*
X010286Y023789D01*
X011794Y021597D02*
X011850Y021597D01*
X014539Y019927D02*
X014654Y019927D01*
X015101Y015395D02*
X018411Y015395D01*
X014344Y011101D02*
X010486Y011101D01*
X010486Y010862D02*
X014223Y010862D01*
X014223Y010624D02*
X010486Y010624D01*
X009586Y009431D02*
X009487Y009431D01*
X009487Y009193D02*
X009586Y009193D01*
X009586Y008954D02*
X009487Y008954D01*
X009487Y008716D02*
X009586Y008716D01*
X009586Y008477D02*
X009487Y008477D01*
X009487Y008238D02*
X009586Y008238D01*
X009586Y008000D02*
X009487Y008000D01*
X009487Y007761D02*
X009586Y007761D01*
X009586Y007523D02*
X009487Y007523D01*
X009491Y007284D02*
X009586Y007284D01*
X009586Y007046D02*
X009364Y007046D01*
X009586Y006807D02*
X008980Y006807D01*
X009586Y006569D02*
X006832Y006569D01*
X006093Y006330D02*
X004315Y006330D01*
X004261Y006092D02*
X005613Y006092D01*
X005352Y005853D02*
X004425Y005853D01*
X004452Y005614D02*
X005295Y005614D01*
X005348Y005376D02*
X004361Y005376D01*
X004204Y005137D02*
X005587Y005137D01*
X005371Y004899D02*
X004406Y004899D01*
X004452Y004660D02*
X005295Y004660D01*
X005329Y004422D02*
X004386Y004422D01*
X004147Y004183D02*
X005503Y004183D01*
X005413Y003945D02*
X004405Y003945D01*
X004472Y003706D02*
X005295Y003706D01*
X005310Y003468D02*
X004428Y003468D01*
X004227Y003229D02*
X005458Y003229D01*
X006051Y002991D02*
X004378Y002991D01*
X004468Y002752D02*
X006185Y002752D01*
X006954Y002752D02*
X007197Y002752D01*
X007837Y002752D02*
X013551Y002752D01*
X013551Y002991D02*
X008088Y002991D01*
X008107Y003229D02*
X009991Y003229D01*
X009752Y003468D02*
X008082Y003468D01*
X008113Y003706D02*
X009624Y003706D01*
X009624Y003945D02*
X008076Y003945D01*
X008114Y004183D02*
X009689Y004183D01*
X009727Y004422D02*
X008069Y004422D01*
X008114Y004660D02*
X009696Y004660D01*
X009665Y004899D02*
X008063Y004899D01*
X008114Y005137D02*
X009634Y005137D01*
X009603Y005376D02*
X008057Y005376D01*
X008114Y005614D02*
X009586Y005614D01*
X009586Y005853D02*
X008046Y005853D01*
X008114Y006092D02*
X009586Y006092D01*
X009586Y006330D02*
X008035Y006330D01*
X006045Y006092D02*
X006026Y006092D01*
X005861Y006569D02*
X004447Y006569D01*
X004444Y006807D02*
X005040Y006807D01*
X004884Y007046D02*
X004307Y007046D01*
X004269Y007284D02*
X004913Y007284D01*
X005082Y007523D02*
X004428Y007523D01*
X004452Y007761D02*
X004848Y007761D01*
X004836Y008000D02*
X004353Y008000D01*
X004222Y008238D02*
X005011Y008238D01*
X004845Y008477D02*
X004409Y008477D01*
X004452Y008716D02*
X004606Y008716D01*
X005676Y007046D02*
X005725Y007046D01*
X005701Y006807D02*
X005520Y006807D01*
X003926Y003684D02*
X003382Y003684D01*
X003926Y003684D01*
X003926Y003684D01*
X003927Y003684D02*
X003927Y003684D01*
X003927Y003229D01*
X003927Y003229D01*
X003927Y002684D01*
X003927Y002684D01*
X003927Y003229D01*
X003927Y003684D01*
X003927Y003468D02*
X003927Y003468D01*
X003927Y002991D02*
X003927Y002991D01*
X003927Y002752D02*
X003927Y002752D01*
X003926Y002684D02*
X003926Y002684D01*
X003382Y002684D01*
X002927Y002684D01*
X002927Y002684D01*
X003382Y002684D01*
X003926Y002684D01*
X004288Y002275D02*
X013771Y002275D01*
X013551Y002513D02*
X004444Y002513D01*
X003382Y003684D02*
X002927Y003684D01*
X002927Y003684D01*
X003382Y003684D01*
X002927Y003684D02*
X002927Y003229D01*
X002927Y003229D01*
X002927Y002684D01*
X002927Y002684D01*
X002927Y003139D01*
X002927Y003684D01*
X002927Y003684D01*
X002927Y003468D02*
X002927Y003468D01*
X002927Y002991D02*
X002927Y002991D01*
X002927Y002752D02*
X002927Y002752D01*
X002566Y002275D02*
X002508Y002275D01*
X006601Y010385D02*
X007867Y010385D01*
X007932Y010624D02*
X006536Y010624D01*
X006601Y010862D02*
X007867Y010862D01*
X007923Y011101D02*
X006545Y011101D01*
X005984Y011101D02*
X005984Y011101D01*
X005984Y010862D02*
X005984Y010862D01*
X005984Y010624D02*
X005984Y010624D01*
X005432Y010624D02*
X005355Y010624D01*
X005367Y010862D02*
X005209Y010862D01*
X005073Y011101D02*
X005423Y011101D01*
X004549Y011101D02*
X004252Y011101D01*
X008484Y011101D02*
X008484Y011101D01*
X008484Y010862D02*
X008484Y010862D01*
X008484Y010624D02*
X008484Y010624D01*
X014352Y007523D02*
X014582Y007523D01*
X014764Y007523D01*
X014994Y007523D01*
X013977Y004183D02*
X012815Y004183D01*
X012872Y003945D02*
X021467Y003945D01*
X021402Y003706D02*
X012872Y003706D01*
X012513Y003229D02*
X013690Y003229D01*
X020191Y022282D02*
X020191Y022282D01*
X021927Y024684D02*
X021927Y024684D01*
X022382Y024684D01*
X022926Y024684D01*
X022926Y024684D01*
X022382Y024684D01*
X021927Y024684D01*
X008422Y024936D02*
X007164Y024936D01*
X007227Y024698D02*
X008387Y024698D01*
X006161Y024364D02*
X005157Y024164D01*
X004689Y023505D02*
X004421Y023505D01*
X004534Y023267D02*
X004252Y023267D01*
X004325Y023028D02*
X004564Y023028D01*
X005718Y025652D02*
X002801Y025652D01*
D19*
X004931Y023184D03*
X005211Y022364D03*
X005157Y024164D03*
X005161Y025164D03*
X006829Y024708D03*
X004522Y020396D03*
X002340Y022185D03*
X006936Y017168D03*
X008661Y019289D03*
X008421Y014679D03*
X009211Y012164D03*
X005223Y007895D03*
X005280Y007130D03*
X006094Y006898D03*
X004511Y009164D03*
X004811Y010164D03*
X004811Y010800D03*
D20*
X004811Y010164D02*
X004811Y009590D01*
X005478Y008922D01*
X005984Y008922D01*
X005984Y008430D02*
X005245Y008430D01*
X004511Y009164D01*
X005266Y007938D02*
X005984Y007938D01*
X005266Y007938D02*
X005223Y007895D01*
X005506Y007357D02*
X005280Y007130D01*
X005506Y007357D02*
X007703Y007357D01*
X008284Y007938D01*
X008484Y007938D01*
X006936Y017168D02*
X005734Y017168D01*
X005734Y020168D02*
X007484Y020168D01*
X007484Y021153D02*
X005734Y021153D01*
X008661Y019289D02*
X009161Y019789D01*
X009286Y019789D01*
D21*
X018815Y007308D02*
X018815Y004851D01*
X018702Y004851D01*
X020356Y004851D01*
X018702Y004879D02*
X018702Y004851D01*
X018702Y004879D02*
X015925Y004879D01*
X014271Y004879D01*
X014271Y004834D01*
D22*
X010254Y003857D02*
X010036Y005539D01*
X010036Y009914D01*
X010036Y019039D01*
X020800Y009209D02*
X018899Y007308D01*
X018815Y007308D01*
D23*
X018815Y013558D02*
X019269Y013558D01*
X019797Y014086D01*
X019797Y015828D01*
X020842Y016873D01*
D24*
X008484Y009907D02*
X005984Y009907D01*
X005984Y009414D02*
X005523Y009414D01*
X005247Y009690D01*
X005247Y010364D01*
X004811Y010800D01*
X005984Y008922D02*
X008484Y008922D01*
X008484Y008430D02*
X005984Y008430D01*
X005734Y019676D02*
X005299Y019676D01*
X004522Y020396D01*
X005000Y020553D02*
X005166Y020176D01*
X005734Y020168D01*
X005000Y020553D02*
X004794Y021366D01*
X004240Y022185D01*
M02*
