<?xml version="1.0" encoding="UTF-8" standalone="no"?>
<!-- Created with Inkscape (http://www.inkscape.org/) -->

<svg
   xmlns:dc="http://purl.org/dc/elements/1.1/"
   xmlns:cc="http://creativecommons.org/ns#"
   xmlns:rdf="http://www.w3.org/1999/02/22-rdf-syntax-ns#"
   xmlns:svg="http://www.w3.org/2000/svg"
   xmlns="http://www.w3.org/2000/svg"
   xmlns:sodipodi="http://sodipodi.sourceforge.net/DTD/sodipodi-0.dtd"
   xmlns:inkscape="http://www.inkscape.org/namespaces/inkscape"
   width="315.64597"
   height="237.69321"
   id="svg2"
   version="1.1"
   inkscape:version="0.48.3.1 r9886"
   sodipodi:docname="joybracket.svg">
  <defs
     id="defs4" />
  <sodipodi:namedview
     id="base"
     pagecolor="#ffffff"
     bordercolor="#666666"
     borderopacity="1.0"
     inkscape:pageopacity="0.0"
     inkscape:pageshadow="2"
     inkscape:zoom="1.5"
     inkscape:cx="208.55592"
     inkscape:cy="130.54279"
     inkscape:document-units="mm"
     inkscape:current-layer="layer1"
     showgrid="false"
     units="mm"
     inkscape:snap-global="false"
     inkscape:window-width="1596"
     inkscape:window-height="861"
     inkscape:window-x="0"
     inkscape:window-y="18"
     inkscape:window-maximized="0"
     fit-margin-top="5"
     fit-margin-left="5"
     fit-margin-right="5"
     fit-margin-bottom="5">
    <inkscape:grid
       type="xygrid"
       id="grid2985"
       empspacing="1"
       visible="true"
       enabled="true"
       snapvisiblegridlinesonly="true"
       units="mm"
       spacingx="0.5mm"
       spacingy="0.5mm"
       originx="-14.508748mm"
       originy="-1.4588395mm" />
  </sodipodi:namedview>
  <metadata
     id="metadata7">
    <rdf:RDF>
      <cc:Work
         rdf:about="">
        <dc:format>image/svg+xml</dc:format>
        <dc:type
           rdf:resource="http://purl.org/dc/dcmitype/StillImage" />
        <dc:title></dc:title>
      </cc:Work>
    </rdf:RDF>
  </metadata>
  <g
     inkscape:label="Layer 1"
     inkscape:groupmode="layer"
     id="layer1"
     transform="translate(-51.40895,-809.49985)">
    <g
       id="g3166"
       style="fill:none;stroke:#ff0000;stroke-width:0.35433072;stroke-miterlimit:4;stroke-opacity:1;stroke-dasharray:none">
      <rect
         ry="7.0866141"
         rx="7.0866141"
         y="827.39355"
         x="69.30265"
         height="201.90581"
         width="279.85855"
         id="rect2987"
         style="opacity:0.98999999;fill:none;stroke:#ff0000;stroke-width:0.35433072;stroke-miterlimit:4;stroke-opacity:1;stroke-dasharray:none" />
      <path
         transform="matrix(0.99800397,0,0,0.99800396,99.53086,107.94003)"
         d="m 159.44882,822.04724 c 0,48.92286 -39.65981,88.58268 -88.582678,88.58268 -48.922863,0 -88.582679,-39.65982 -88.582679,-88.58268 0,-48.92286 39.659816,-88.58268 88.582679,-88.58268 48.922868,0 88.582678,39.65982 88.582678,88.58268 z"
         sodipodi:ry="88.58268"
         sodipodi:rx="88.58268"
         sodipodi:cy="822.04724"
         sodipodi:cx="70.866142"
         id="path2989"
         style="opacity:0.98999999;fill:none;stroke:#ff0000;stroke-width:0.35503939;stroke-miterlimit:4;stroke-opacity:1;stroke-dasharray:none"
         sodipodi:type="arc" />
      <path
         transform="matrix(1.4285714,0,0,1.4285714,95.132728,-320.85483)"
         d="m 0,818.50391 c 0,1.95691 -1.5863926,3.5433 -3.5433071,3.5433 -1.9569144,0 -3.543307,-1.58639 -3.543307,-3.5433 0,-1.95692 1.5863926,-3.54331 3.543307,-3.54331 C -1.5863926,814.9606 0,816.54699 0,818.50391 z"
         sodipodi:ry="3.5433071"
         sodipodi:rx="3.5433071"
         sodipodi:cy="818.50391"
         sodipodi:cx="-3.5433071"
         id="path2991"
         style="opacity:0.98999999;fill:none;stroke:#ff0000;stroke-width:0.2480315;stroke-miterlimit:4;stroke-opacity:1;stroke-dasharray:none"
         sodipodi:type="arc" />
      <path
         transform="matrix(1.4285714,0,0,1.4285714,255.03824,-320.85483)"
         d="m 0,818.50391 c 0,1.95691 -1.5863926,3.5433 -3.5433071,3.5433 -1.9569144,0 -3.543307,-1.58639 -3.543307,-3.5433 0,-1.95692 1.5863926,-3.54331 3.543307,-3.54331 C -1.5863926,814.9606 0,816.54699 0,818.50391 z"
         sodipodi:ry="3.5433071"
         sodipodi:rx="3.5433071"
         sodipodi:cy="818.50391"
         sodipodi:cx="-3.5433071"
         id="path2991-7"
         style="opacity:0.98999999;fill:none;stroke:#ff0000;stroke-width:0.2480315;stroke-miterlimit:4;stroke-opacity:1;stroke-dasharray:none"
         sodipodi:type="arc" />
      <path
         transform="matrix(1.4285714,0,0,1.4285714,255.21935,-161.04328)"
         d="m 0,818.50391 c 0,1.95691 -1.5863926,3.5433 -3.5433071,3.5433 -1.9569144,0 -3.543307,-1.58639 -3.543307,-3.5433 0,-1.95692 1.5863926,-3.54331 3.543307,-3.54331 C -1.5863926,814.9606 0,816.54699 0,818.50391 z"
         sodipodi:ry="3.5433071"
         sodipodi:rx="3.5433071"
         sodipodi:cy="818.50391"
         sodipodi:cx="-3.5433071"
         id="path2991-9"
         style="opacity:0.98999999;fill:none;stroke:#ff0000;stroke-width:0.2480315;stroke-miterlimit:4;stroke-opacity:1;stroke-dasharray:none"
         sodipodi:type="arc" />
      <path
         sodipodi:type="arc"
         style="opacity:0.98999999;fill:none;stroke:#ff0000;stroke-width:0.2480315;stroke-miterlimit:4;stroke-opacity:1;stroke-dasharray:none"
         id="path3120"
         sodipodi:cx="-3.5433071"
         sodipodi:cy="818.50391"
         sodipodi:rx="3.5433071"
         sodipodi:ry="3.5433071"
         d="m 0,818.50391 c 0,1.95691 -1.5863926,3.5433 -3.5433071,3.5433 -1.9569144,0 -3.543307,-1.58639 -3.543307,-3.5433 0,-1.95692 1.5863926,-3.54331 3.543307,-3.54331 C -1.5863926,814.9606 0,816.54699 0,818.50391 z"
         transform="matrix(1.4285714,0,0,1.4285714,95.572103,-161.04328)" />
      <path
         sodipodi:type="arc"
         style="opacity:0.98999999;fill:none;stroke:#ff0000;stroke-width:0.1488189;stroke-miterlimit:4;stroke-opacity:1;stroke-dasharray:none"
         id="path3162"
         sodipodi:cx="-3.5433071"
         sodipodi:cy="818.50391"
         sodipodi:rx="3.5433071"
         sodipodi:ry="3.5433071"
         d="m 0,818.50391 c 0,1.95691 -1.5863926,3.5433 -3.5433071,3.5433 -1.9569144,0 -3.543307,-1.58639 -3.543307,-3.5433 0,-1.95692 1.5863926,-3.54331 3.543307,-3.54331 C -1.5863926,814.9606 0,816.54699 0,818.50391 z"
         transform="matrix(2.3809524,0,0,2.3809524,321.04117,-1093.9257)" />
      <path
         transform="matrix(2.3809524,0,0,2.3809524,321.04117,-943.9257)"
         d="m 0,818.50391 c 0,1.95691 -1.5863926,3.5433 -3.5433071,3.5433 -1.9569144,0 -3.543307,-1.58639 -3.543307,-3.5433 0,-1.95692 1.5863926,-3.54331 3.543307,-3.54331 C -1.5863926,814.9606 0,816.54699 0,818.50391 z"
         sodipodi:ry="3.5433071"
         sodipodi:rx="3.5433071"
         sodipodi:cy="818.50391"
         sodipodi:cx="-3.5433071"
         id="path3164"
         style="opacity:0.98999999;fill:none;stroke:#ff0000;stroke-width:0.1488189;stroke-miterlimit:4;stroke-opacity:1;stroke-dasharray:none"
         sodipodi:type="arc" />
    </g>
  </g>
</svg>
